<svg width="23" height="19" viewBox="0 0 23 19" fill="none" xmlns="http://www.w3.org/2000/svg">
<rect y="2" width="23" height="15" rx="4" fill="#A70000"/>
<path d="M6.91113 13H5.5V7.56055L3.81543 8.08301V6.93555L6.75977 5.88086H6.91113V13ZM13.8594 7.78027C13.8594 8.12533 13.7731 8.43132 13.6006 8.69824C13.4281 8.96517 13.1904 9.17839 12.8877 9.33789C13.2327 9.50391 13.5062 9.7334 13.708 10.0264C13.9098 10.3161 14.0107 10.6579 14.0107 11.0518C14.0107 11.6833 13.7959 12.1829 13.3662 12.5508C12.9365 12.9154 12.3522 13.0977 11.6133 13.0977C10.8743 13.0977 10.2884 12.9137 9.85547 12.5459C9.42253 12.1781 9.20605 11.68 9.20605 11.0518C9.20605 10.6579 9.30697 10.3145 9.50879 10.0215C9.71061 9.72852 9.98242 9.50065 10.3242 9.33789C10.0215 9.17839 9.78385 8.96517 9.61133 8.69824C9.44206 8.43132 9.35742 8.12533 9.35742 7.78027C9.35742 7.1748 9.55924 6.69303 9.96289 6.33496C10.3665 5.97363 10.915 5.79297 11.6084 5.79297C12.2985 5.79297 12.8454 5.97201 13.249 6.33008C13.6559 6.6849 13.8594 7.16829 13.8594 7.78027ZM12.5947 10.9492C12.5947 10.64 12.5052 10.3926 12.3262 10.207C12.1471 10.0215 11.9062 9.92871 11.6035 9.92871C11.304 9.92871 11.0648 10.0215 10.8857 10.207C10.7067 10.3893 10.6172 10.6367 10.6172 10.9492C10.6172 11.252 10.7051 11.4961 10.8809 11.6816C11.0566 11.8672 11.3008 11.96 11.6133 11.96C11.9193 11.96 12.1585 11.8704 12.3311 11.6914C12.5068 11.5124 12.5947 11.265 12.5947 10.9492ZM12.4482 7.84863C12.4482 7.57194 12.375 7.35059 12.2285 7.18457C12.082 7.0153 11.8753 6.93066 11.6084 6.93066C11.3447 6.93066 11.1396 7.01204 10.9932 7.1748C10.8467 7.33757 10.7734 7.56217 10.7734 7.84863C10.7734 8.13184 10.8467 8.3597 10.9932 8.53223C11.1396 8.70475 11.3464 8.79102 11.6133 8.79102C11.8802 8.79102 12.0853 8.70475 12.2285 8.53223C12.375 8.3597 12.4482 8.13184 12.4482 7.84863ZM17.873 9.02051H19.6357V10.2949H17.873V12.2871H16.5303V10.2949H14.7627V9.02051H16.5303V7.11133H17.873V9.02051Z" fill="white"/>
</svg>
