<svg width="24" height="24" viewBox="0 0 24 24" fill="none" xmlns="http://www.w3.org/2000/svg">
<path d="M11.913 12.9319C11.9379 12.9319 11.9627 12.9319 11.9925 12.9319C12.0025 12.9319 12.0124 12.9319 12.0223 12.9319C12.0373 12.9319 12.0571 12.9319 12.072 12.9319C13.5282 12.907 14.7061 12.3951 15.5759 11.416C17.4893 9.25906 17.1712 5.5614 17.1364 5.20853C17.0122 2.55954 15.7598 1.29219 14.726 0.700766C13.9557 0.258439 13.0561 0.0198799 12.0522 0H12.0174C12.0124 0 12.0025 0 11.9975 0H11.9677C11.416 0 10.3326 0.0894595 9.29383 0.680886C8.25013 1.27231 6.97782 2.53966 6.85357 5.20853C6.81878 5.5614 6.5007 9.25906 8.41414 11.416C9.27892 12.3951 10.4568 12.907 11.913 12.9319ZM8.18055 5.33278C8.18055 5.31787 8.18552 5.30296 8.18552 5.29302C8.34953 1.72955 10.8792 1.34686 11.9627 1.34686H11.9826C11.9925 1.34686 12.0074 1.34686 12.0223 1.34686C13.3642 1.37668 15.6455 1.92338 15.7995 5.29302C15.7995 5.30793 15.7995 5.32284 15.8045 5.33278C15.8095 5.36757 16.1574 8.74715 14.5769 10.5264C13.9507 11.2321 13.1157 11.58 12.0174 11.59C12.0074 11.59 12.0025 11.59 11.9925 11.59C11.9826 11.59 11.9776 11.59 11.9677 11.59C10.8743 11.58 10.0344 11.2321 9.41311 10.5264C7.83762 8.75709 8.17558 5.3626 8.18055 5.33278Z" fill="black"/>
<path d="M22.2058 19.0648C22.2058 19.0598 22.2058 19.0549 22.2058 19.0499C22.2058 19.0101 22.2008 18.9704 22.2008 18.9257C22.171 17.9416 22.1064 15.6405 19.9494 14.9049C19.9345 14.9 19.9147 14.895 19.8997 14.89C17.6583 14.3185 15.7946 13.0263 15.7747 13.0114C15.4715 12.7977 15.054 12.8722 14.8403 13.1754C14.6266 13.4786 14.7012 13.896 15.0043 14.1098C15.0888 14.1694 17.0669 15.5461 19.5419 16.1822C20.6999 16.5947 20.8291 17.8323 20.8639 18.9654C20.8639 19.0101 20.8639 19.0499 20.8689 19.0897C20.8739 19.537 20.844 20.2278 20.7645 20.6254C19.9594 21.0826 16.8035 22.6631 12.0025 22.6631C7.22135 22.6631 4.04554 21.0777 3.23543 20.6204C3.15591 20.2228 3.12112 19.532 3.13106 19.0847C3.13106 19.0449 3.13603 19.0052 3.13603 18.9604C3.17082 17.8273 3.30004 16.5898 4.45804 16.1773C6.93309 15.5411 8.91114 14.1595 8.99563 14.1048C9.2988 13.8911 9.37335 13.4736 9.15964 13.1704C8.94593 12.8673 8.52845 12.7927 8.22528 13.0064C8.2054 13.0213 6.3516 14.3135 4.10021 14.8851C4.08033 14.89 4.06542 14.895 4.05051 14.9C1.89354 15.6405 1.82893 17.9416 1.79911 18.9207C1.79911 18.9654 1.79911 19.0052 1.79414 19.0449C1.79414 19.0499 1.79414 19.0549 1.79414 19.0598C1.78917 19.3183 1.7842 20.6453 2.04761 21.3112C2.09731 21.4405 2.18677 21.5498 2.30605 21.6244C2.45514 21.7238 6.02856 24 12.0074 24C17.9863 24 21.5597 21.7188 21.7088 21.6244C21.8231 21.5498 21.9176 21.4405 21.9673 21.3112C22.2158 20.6502 22.2108 19.3233 22.2058 19.0648Z" fill="black"/>
</svg>
