<svg height="480pt" viewBox="0 -29 480 480" width="480pt" xmlns="http://www.w3.org/2000/svg">
    <path fill="#F7C332" d="m72 85.605469h32v16h-32zm0 0"/>
    <path fill="#F7C332" d="m120 85.605469h96v16h-96zm0 0"/>
    <path fill="#F7C332" d="m72 133.605469h144v16h-144zm0 0"/>
    <path fill="#F7C332" d="m72 181.605469h96v16h-96zm0 0"/>
    <path fill="#F7C332" d="m72 229.605469h144v16h-144zm0 0"/>
    <path fill="#F7C332" d="m72 277.605469h144v16h-144zm0 0"/>
    <path fill="#F7C332" d="m72 325.605469h144v16h-144zm0 0"/>
    <path fill="#F7C332" d="m472 69.605469h-32v-24c0-4.417969-3.582031-8-8-8h-16.960938c-1.125-19.578125-16.3125-35.433594-35.824218-37.402344-19.511719-1.96875-37.558594 10.53125-42.574219 29.492187l-2.097656 7.910157h-62.542969c-12.589844 0-24.445312 5.929687-32 16-7.554688-10.070313-19.410156-16-32-16h-160c-4.417969 0-8 3.582031-8 8v24h-32c-4.417969 0-8 3.582031-8 8v336c0 4.417969 3.582031 8 8 8h464c4.417969 0 8-3.582031 8-8v-336c0-4.417969-3.582031-8-8-8zm-134.175781 186.992187-20.800781 16.304688-7.726563-2.070313-9.839844-24.511719 21.734375-4.449218zm52.367187-179.429687-46.398437-12.425781 2.070312-7.726563 46.402344 12.421875zm-50.496094 3.03125 15.457032 4.136719-38.074219 142.070312-17.519531 3.585938zm6.234376 162.207031-13.394532-11.871094 38.066406-142.046875 15.453126 4.140625zm6.191406-208.566406c3.429687-12.796875 16.582031-20.394532 29.382812-16.96875 12.792969 3.441406 20.390625 16.589844 16.984375 29.390625l-2.082031 7.730469-46.398438-12.417969zm-80.121094 19.765625h58.257812l-49.457031 184.730469c-.117187.578124-.195312 1.167968-.242187 1.757812.0625 1.113281.246094 2.214844.546875 3.289062l14.894531 37.121094c.9375 2.335938 2.917969 4.097656 5.351562 4.75l-4.144531 15.457032c-1.136719 4.269531 1.398438 8.652343 5.664063 9.792968.675781.1875 1.371094.28125 2.074218.277344 3.617188-.003906 6.785157-2.4375 7.71875-5.933594l4.144532-15.457031c2.429687.652344 5.027344.121094 7.007812-1.433594l31.464844-24.695312c.792969-.78125 1.5-1.644531 2.109375-2.574219.261719-.535156.488281-1.085938.679687-1.648438l45.546876-170 6.207031-23.199218 3.253906-12.234375h10.921875v320h-152c-8.667969.007812-17.097656 2.851562-24 8.097656v-304.097656c0-13.253907 10.746094-24 24-24zm-216 0h152c13.253906 0 24 10.746093 24 24v304.097656c-6.902344-5.246094-15.332031-8.089844-24-8.097656h-152zm-40 32h24v296c0 4.417969 3.582031 8 8 8h160c10.132812.042969 19.148438 6.445312 22.527344 16h-214.527344zm448 320h-214.527344c3.378906-9.554688 12.394532-15.957031 22.527344-16h160c4.417969 0 8-3.582031 8-8v-296h24zm0 0"/>
    <path fill="#F7C332" d="m184 181.605469h32v16h-32zm0 0"/>
</svg>