<svg width="48" height="48" viewBox="0 0 48 48" fill="none" xmlns="http://www.w3.org/2000/svg">
    <g clip-path="url(#clip0)">
        <path d="M5.634 14.0426C5.65903 14.0426 5.68448 14.0408 5.71003 14.0371L14.5455 12.7683C15.2319 12.6692 15.9346 12.619 16.6342 12.619C17.9552 12.619 19.2701 12.7974 20.5425 13.1492C20.8244 13.2271 21.1168 13.0617 21.1948 12.7794C21.2729 12.4972 21.1073 12.2051 20.8251 12.1271C19.4606 11.7498 18.0506 11.5586 16.6342 11.5586C15.884 11.5586 15.1304 11.6125 14.3944 11.7187L5.55935 12.9874C5.26955 13.0291 5.06828 13.2978 5.10996 13.5876C5.14781 13.8519 5.37452 14.0426 5.634 14.0426Z" fill="black"/>
        <path d="M27.4576 13.1493C29.4209 12.6065 31.4385 12.4784 33.455 12.7685L42.29 14.0372C42.3156 14.0409 42.3409 14.0427 42.366 14.0427C42.6255 14.0427 42.8523 13.852 42.8902 13.5878C42.9319 13.2979 42.7306 13.0292 42.4408 12.9876L33.6059 11.7189C31.444 11.4078 29.2801 11.5452 27.1751 12.1273C26.8928 12.2053 26.7273 12.4973 26.8053 12.7796C26.8834 13.0619 27.1756 13.2273 27.4576 13.1493Z" fill="black"/>
        <path d="M5.634 17.6864C5.65903 17.6864 5.68448 17.6846 5.71003 17.6809L14.5455 16.4121C15.2319 16.3129 15.9346 16.2628 16.6342 16.2628C17.9552 16.2628 19.2701 16.4412 20.5425 16.793C20.8244 16.871 21.1168 16.7055 21.1948 16.4232C21.2729 16.141 21.1073 15.8489 20.8251 15.7709C19.4606 15.3936 18.0506 15.2024 16.6342 15.2024C15.884 15.2024 15.1304 15.2563 14.3944 15.3625L5.55935 16.6312C5.26955 16.6728 5.06828 16.9416 5.10996 17.2314C5.14781 17.4957 5.37452 17.6864 5.634 17.6864Z" fill="black"/>
        <path d="M27.4576 16.7931C29.4209 16.2503 31.4387 16.1223 33.455 16.4123L42.29 17.681C42.3156 17.6847 42.3409 17.6865 42.366 17.6865C42.6255 17.6865 42.8523 17.4958 42.8902 17.2316C42.9319 16.9418 42.7306 16.6731 42.4408 16.6314L33.6059 15.3627C31.444 15.0516 29.2803 15.1889 27.1751 15.7711C26.8928 15.8491 26.7273 16.1412 26.8053 16.4234C26.8834 16.7057 27.1756 16.8711 27.4576 16.7931Z" fill="black"/>
        <path d="M5.634 21.3302C5.65903 21.3302 5.68448 21.3284 5.71003 21.3247L14.5455 20.0559C15.2319 19.9569 15.9346 19.9066 16.6342 19.9066C17.9552 19.9066 19.2702 20.0849 20.5425 20.4368C20.8244 20.5148 21.1168 20.3493 21.1948 20.067C21.2729 19.7848 21.1073 19.4927 20.8251 19.4147C19.4608 19.0374 18.0507 18.8462 16.6342 18.8462C15.8841 18.8462 15.1304 18.9001 14.3944 19.0063L5.55935 20.275C5.26955 20.3166 5.06828 20.5854 5.10996 20.8752C5.14781 21.1395 5.37452 21.3302 5.634 21.3302Z" fill="black"/>
        <path d="M27.4576 20.4369C29.421 19.894 31.4391 19.7661 33.455 20.0561L42.29 21.3247C42.3156 21.3284 42.3409 21.3302 42.366 21.3302C42.6255 21.3302 42.8523 21.1396 42.8902 20.8753C42.9319 20.5855 42.7306 20.3168 42.4408 20.2751L33.6059 19.0065C31.4437 18.6954 29.2801 18.8328 27.1751 19.4149C26.8928 19.4929 26.7273 19.7849 26.8053 20.0672C26.8834 20.3495 27.1756 20.5149 27.4576 20.4369Z" fill="black"/>
        <path d="M5.634 24.974C5.65903 24.974 5.68448 24.9722 5.71003 24.9685L14.5455 23.6997C15.2319 23.6005 15.9346 23.5504 16.6342 23.5504C17.9552 23.5504 19.2701 23.7287 20.5425 24.0806C20.8244 24.1585 21.1168 23.9931 21.1948 23.7108C21.2729 23.4285 21.1073 23.1365 20.8251 23.0585C19.4606 22.6812 18.0506 22.49 16.6342 22.49C15.884 22.49 15.1304 22.5439 14.3944 22.6501L5.55935 23.9188C5.26955 23.9604 5.06828 24.2292 5.10996 24.519C5.14781 24.7833 5.37452 24.974 5.634 24.974Z" fill="black"/>
        <path d="M27.4576 24.0807C29.4209 23.5378 31.4385 23.4098 33.455 23.6999L42.29 24.9685C42.3156 24.9723 42.3409 24.9741 42.366 24.9741C42.6255 24.9741 42.8523 24.7834 42.8902 24.5191C42.9319 24.2293 42.7306 23.9606 42.4408 23.919L33.6059 22.6503C31.444 22.3392 29.2801 22.4766 27.1751 23.0587C26.8928 23.1367 26.7273 23.4287 26.8053 23.711C26.8834 23.9932 27.1756 24.1586 27.4576 24.0807Z" fill="black"/>
        <path d="M5.63399 28.6178C5.65912 28.6178 5.68446 28.616 5.71002 28.6123L14.5454 27.3435C15.2318 27.2445 15.9345 27.1942 16.634 27.1942C17.9551 27.1942 19.27 27.3726 20.5423 27.7244C20.8243 27.8023 21.1167 27.6369 21.1947 27.3546C21.2727 27.0724 21.1072 26.7803 20.8249 26.7023C19.4605 26.325 18.0505 26.1338 16.634 26.1338C15.884 26.1338 15.1303 26.1877 14.3943 26.2939L5.55923 27.5627C5.26942 27.6044 5.06816 27.8731 5.10983 28.1629C5.1478 28.4271 5.37451 28.6178 5.63399 28.6178Z" fill="black"/>
        <path d="M27.4576 27.7245C29.421 27.1816 31.4391 27.0537 33.455 27.3437L42.29 28.6123C42.3156 28.6161 42.3409 28.6179 42.366 28.6179C42.6255 28.6179 42.8523 28.4272 42.8902 28.1629C42.9319 27.8731 42.7306 27.6044 42.4408 27.5628L33.6059 26.2941C31.4437 25.983 29.2801 26.1204 27.1751 26.7025C26.8928 26.7805 26.7273 27.0725 26.8053 27.3548C26.8834 27.637 27.1756 27.8024 27.4576 27.7245Z" fill="black"/>
        <path d="M5.634 32.2617C5.65903 32.2617 5.68448 32.2599 5.71003 32.2562L14.5455 30.9874C15.2321 30.8883 15.9348 30.8381 16.6342 30.8381C17.9552 30.8381 19.2701 31.0165 20.5425 31.3683C20.8244 31.4463 21.1168 31.2808 21.1948 30.9985C21.2729 30.7163 21.1073 30.4242 20.8251 30.3462C19.4606 29.9689 18.0506 29.7776 16.6342 29.7776C15.8842 29.7776 15.1306 29.8315 14.3944 29.9377L5.55935 31.2064C5.26955 31.248 5.06828 31.5167 5.10996 31.8066C5.14781 32.071 5.37452 32.2617 5.634 32.2617Z" fill="black"/>
        <path d="M27.4577 31.3683C29.4208 30.8255 31.4385 30.6974 33.455 30.9875L42.29 32.2561C42.3156 32.2599 42.3409 32.2617 42.366 32.2617C42.6255 32.2617 42.8523 32.071 42.8902 31.8067C42.9319 31.5169 42.7306 31.2482 42.4408 31.2066L33.6059 29.9379C31.444 29.6268 29.2802 29.7641 27.175 30.3463C26.8928 30.4243 26.7273 30.7163 26.8053 30.9986C26.8834 31.2808 27.1753 31.4462 27.4577 31.3683Z" fill="black"/>
        <path d="M16.634 34.4818C17.9551 34.4818 19.27 34.6601 20.5423 35.012C20.8243 35.09 21.1167 34.9245 21.1947 34.6422C21.2727 34.3599 21.1072 34.0679 20.8249 33.9899C19.4605 33.6126 18.0505 33.4214 16.634 33.4214C15.8839 33.4214 15.1303 33.4753 14.3943 33.5815L5.55923 34.8502C5.26942 34.8918 5.06816 35.1605 5.10983 35.4504C5.1478 35.7146 5.37451 35.9053 5.63399 35.9053C5.65901 35.9053 5.68446 35.9035 5.71002 35.8997L14.5455 34.631C15.2319 34.532 15.9345 34.4818 16.634 34.4818Z" fill="black"/>
        <path d="M42.4407 34.8504L33.6057 33.5817C31.4439 33.2706 29.28 33.4079 27.175 33.9901C26.8927 34.0681 26.7272 34.3602 26.8052 34.6424C26.8832 34.9247 27.1756 35.0901 27.4575 35.0122C29.4208 34.4694 31.4384 34.3414 33.4549 34.6314L42.2899 35.9001C42.3154 35.9038 42.3408 35.9056 42.3659 35.9056C42.6254 35.9056 42.8522 35.7149 42.8901 35.4507C42.9317 35.1607 42.7306 34.892 42.4407 34.8504Z" fill="black"/>
        <path d="M47.4698 12.4669H46.2234V9.92389C46.2234 9.66017 46.0296 9.43653 45.7686 9.3991L33.6057 7.65188C32.8642 7.54531 32.1166 7.49378 31.3697 7.49473V3.40234C31.3697 3.20287 31.2578 3.02038 31.0802 2.92982C30.9024 2.83926 30.689 2.85623 30.5278 2.97351L29.0899 4.01917L27.652 2.97351C27.4909 2.85623 27.2774 2.83937 27.0996 2.92982C26.9219 3.02027 26.81 3.20287 26.81 3.40234V8.16989C25.8404 8.46181 24.8979 8.84621 24 9.32106C21.0727 7.7733 17.6737 7.18085 14.3943 7.65188L2.2314 9.3991C1.97043 9.43664 1.77659 9.66017 1.77659 9.92389V12.4669H0.530199C0.237423 12.4669 0 12.7044 0 12.9971V44.5973C0 44.7446 0.061291 44.8853 0.169239 44.9857C0.267644 45.0772 0.396801 45.1275 0.530199 45.1275C0.543136 45.1275 0.555967 45.1271 0.568903 45.1262L21.8277 43.5724H26.1724L47.4313 45.1262C47.4442 45.1271 47.457 45.1275 47.4699 45.1275C47.6034 45.1275 47.7325 45.0772 47.8308 44.9857C47.9388 44.8853 48.0001 44.7446 48.0001 44.5973V12.9971C48 12.7043 47.7627 12.4669 47.4698 12.4669ZM33.4549 8.70147L45.163 10.3833V39.5684L33.6057 37.9082C30.5225 37.4653 27.3335 37.9627 24.5302 39.3103V10.2404C27.2525 8.81037 30.4089 8.26394 33.4549 8.70147ZM4.33279 40.4249L14.5451 38.9579C17.5909 38.5205 20.7473 39.0667 23.4698 40.4969V41.09C21.8127 40.3357 19.9407 39.9663 17.7744 39.9663C16.7235 39.9663 15.6182 40.0516 14.3845 40.2288L4.33279 41.8754V40.4249ZM22.3383 41.77C22.8268 41.9507 23.2948 42.1638 23.7433 42.4121C23.9031 42.5004 24.0968 42.5004 24.2567 42.4121C24.7059 42.1635 25.1733 41.9489 25.6616 41.7677V42.512H22.3383V41.77ZM24.5302 41.0888V40.4969C27.2528 39.0667 30.4093 38.5204 33.4549 38.9579L43.6672 40.4249V41.8755L33.6061 40.2272C29.8971 39.6952 26.9849 39.9686 24.5302 41.0888ZM27.8704 4.44354L28.7781 5.10364C28.9639 5.23884 29.216 5.23884 29.4018 5.10364L30.3095 4.44354V7.53185C29.4886 7.58815 28.6726 7.70819 27.8705 7.89047V4.44354H27.8704ZM2.83699 10.3834L14.5451 8.70157C17.5909 8.26405 20.7473 8.81037 23.4698 10.2405V39.3116C21.3343 38.285 18.9756 37.7507 16.6094 37.7507C15.8696 37.7507 15.1288 37.8028 14.3943 37.9083L2.83699 39.5685V10.3834ZM1.0604 44.0269V13.5273H1.77659V40.1802C1.77659 40.334 1.84329 40.4802 1.95962 40.581C2.07573 40.6816 2.23012 40.7269 2.38218 40.7051L3.27239 40.5773V42.4997C3.27239 42.6552 3.34078 42.803 3.45934 42.9038C3.57789 43.0045 3.73462 43.0481 3.88827 43.023L14.5455 41.277C15.7183 41.1086 16.7744 41.0269 17.7743 41.0269C19.0498 41.0269 20.2111 41.1634 21.2778 41.4389V42.5495L1.0604 44.0269ZM46.9396 44.0269L26.722 42.5493V41.4363C28.6153 40.9461 30.8117 40.8976 33.4451 41.2752L44.1116 43.0228C44.1402 43.0274 44.1689 43.0297 44.1974 43.0297C44.3222 43.0297 44.4441 42.9856 44.5406 42.9037C44.6592 42.8029 44.7276 42.6552 44.7276 42.4995V40.5772L45.6179 40.705C45.643 40.7086 45.6683 40.7104 45.6933 40.7104C45.82 40.7104 45.9434 40.665 46.0405 40.581C46.1567 40.4802 46.2235 40.3341 46.2235 40.1802V13.5273H46.9397V44.0269H46.9396Z" fill="black"/>
    </g>
    <defs>
        <clipPath id="clip0">
            <rect width="48" height="48" fill="white"/>
        </clipPath>
    </defs>
</svg>