<svg width="48" height="48" viewBox="0 0 48 48" fill="none" xmlns="http://www.w3.org/2000/svg">
    <g clip-path="url(#clip0)">
        <path d="M22.0521 10.266C18.3518 13.9665 18.3518 19.9872 22.0521 23.6877C23.9023 25.5379 26.3326 26.463 28.7629 26.463C31.1932 26.463 33.6235 25.5379 35.4737 23.6877C39.1741 19.9872 39.1741 13.9665 35.4737 10.266C31.7735 6.56564 25.7525 6.56564 22.0521 10.266ZM35.8939 21.1744V12.7792C37.4124 15.36 37.4124 18.5938 35.8939 21.1744ZM34.6771 11.1933V22.7604C34.6556 22.7825 34.6354 22.8055 34.6136 22.8274C31.3875 26.0532 26.1388 26.0534 22.9125 22.8274C22.4315 22.3464 22.024 21.8198 21.6865 21.2624H22.3881C22.7241 21.2624 22.9964 20.99 22.9964 20.654C22.9964 20.3181 22.7241 20.0456 22.3881 20.0456H21.0804C20.6027 18.8448 20.4177 17.5544 20.5236 16.2835H25.3082C25.6443 16.2835 25.9166 16.0111 25.9166 15.6751C25.9166 15.3392 25.6443 15.0668 25.3082 15.0668H20.716C21.0388 13.6967 21.7153 12.3947 22.7431 11.3046H30.5402C30.8763 11.3046 31.1486 11.0322 31.1486 10.6962C31.1486 10.3603 30.8763 10.0879 30.5402 10.0879H24.1804C25.5628 9.16775 27.1627 8.70698 28.7629 8.70698C30.8816 8.70698 33.0005 9.51343 34.6135 11.1265C34.6354 11.1482 34.6556 11.1712 34.6771 11.1933Z" fill="black"/>
        <path d="M47.3585 32.475L38.5445 23.6609C39.8856 21.7072 40.6078 19.3977 40.6078 16.9768C40.6078 13.813 39.3756 10.8385 37.1384 8.60136C36.2158 7.67871 35.1764 6.94368 34.0687 6.3897V0.942842C34.0687 0.606901 33.7964 0.334473 33.4603 0.334473H6.77602C6.61468 0.334473 6.45991 0.398595 6.3459 0.512603L0.178252 6.67904C0.0641222 6.79317 0 6.94794 0 7.10928V47.0573C0 47.3932 0.272306 47.6656 0.60837 47.6656H33.4603C33.7964 47.6656 34.0687 47.3932 34.0687 47.0573V27.564C34.541 27.3278 35.0005 27.0582 35.444 26.755L44.2613 35.5723C44.6883 35.9993 45.249 36.2128 45.81 36.2128C46.3707 36.2128 46.9317 35.9993 47.3587 35.5723C47.7724 35.1588 48.0001 34.6087 48.0001 34.0237C48 33.4387 47.7722 32.8887 47.3585 32.475ZM39.391 16.9768C39.391 19.8157 38.2854 22.4846 36.2781 24.4919C32.134 28.6358 25.3918 28.6357 21.2478 24.4919C19.2404 22.4845 18.1349 19.8156 18.1349 16.9768C18.1349 14.138 19.2404 11.469 21.2478 9.46172C23.3198 7.38986 26.0413 6.35393 28.763 6.35393C31.4847 6.35393 34.2061 7.38986 36.2782 9.46172C38.2854 11.4691 39.391 14.138 39.391 16.9768ZM6.16765 2.4112V6.50079H2.07734L6.16765 2.4112ZM32.852 46.4489H1.21674V7.71765H6.77602C7.11208 7.71765 7.38439 7.44522 7.38439 7.10928V1.55121H32.852V5.86431C28.6529 4.32659 23.752 5.23696 20.3876 8.60149C19.6379 9.35112 19.0018 10.1839 18.4864 11.0784H12.776C12.4399 11.0784 12.1676 11.3508 12.1676 11.6868C12.1676 12.0227 12.4399 12.2951 12.776 12.2951H17.8768C17.5335 13.093 17.2794 13.9285 17.1195 14.7895H5.90119C5.56512 14.7895 5.29282 15.0619 5.29282 15.3978C5.29282 15.7338 5.56512 16.0062 5.90119 16.0062H16.9578C16.9319 16.3274 16.9182 16.6512 16.9182 16.977C16.9182 17.4907 16.9511 17.9992 17.0151 18.5005H11.3157C10.9796 18.5005 10.7073 18.7729 10.7073 19.1089C10.7073 19.4448 10.9796 19.7173 11.3157 19.7173H17.2358C17.4398 20.5822 17.7402 21.418 18.1318 22.2116H5.90119C5.56512 22.2116 5.29282 22.484 5.29282 22.8199C5.29282 23.1559 5.56512 23.4283 5.90119 23.4283H18.8256C19.2732 24.1145 19.7946 24.7595 20.3874 25.3525C20.5872 25.5522 20.7942 25.7401 21.0043 25.9226H18.9203C18.5842 25.9226 18.3119 26.1951 18.3119 26.531C18.3119 26.8669 18.5842 27.1394 18.9203 27.1394H22.6788C24.5447 28.2562 26.6535 28.8161 28.763 28.8161C30.1493 28.8161 31.5348 28.5721 32.852 28.0896V46.4489ZM37.1384 25.3523C37.3695 25.1213 37.5892 24.8819 37.7986 24.6357L44.0374 30.8745L42.6608 32.2511L36.4196 26.0099C36.6653 25.8013 36.9064 25.5842 37.1384 25.3523ZM46.4982 34.712C46.1187 35.0915 45.5011 35.0915 45.1216 34.712L43.5211 33.1115L44.8977 31.7349L46.4982 33.3354C46.682 33.5192 46.7833 33.7637 46.7833 34.0237C46.7833 34.2837 46.682 34.5281 46.4982 34.712Z" fill="black"/>
        <path d="M5.90122 12.2949H10.7683C11.1044 12.2949 11.3767 12.0224 11.3767 11.6865C11.3767 11.3506 11.1044 11.0781 10.7683 11.0781H5.90122C5.56515 11.0781 5.29285 11.3506 5.29285 11.6865C5.29285 12.0224 5.56515 12.2949 5.90122 12.2949Z" fill="black"/>
        <path d="M5.90122 19.717H9.24737C9.58343 19.717 9.85574 19.4446 9.85574 19.1086C9.85574 18.7727 9.58343 18.5002 9.24737 18.5002H5.90122C5.56515 18.5002 5.29285 18.7727 5.29285 19.1086C5.29285 19.4446 5.56515 19.717 5.90122 19.717Z" fill="black"/>
        <path d="M5.90122 27.1391H17.1318C17.4679 27.1391 17.7402 26.8667 17.7402 26.5307C17.7402 26.1948 17.4679 25.9224 17.1318 25.9224H5.90122C5.56515 25.9224 5.29285 26.1948 5.29285 26.5307C5.29285 26.8667 5.56515 27.1391 5.90122 27.1391Z" fill="black"/>
        <path d="M28.1676 29.6335H10.525C10.1889 29.6335 9.91663 29.906 9.91663 30.2419C9.91663 30.5779 10.1889 30.8503 10.525 30.8503H28.1676C28.5037 30.8503 28.776 30.5779 28.776 30.2419C28.776 29.906 28.5037 29.6335 28.1676 29.6335Z" fill="black"/>
        <path d="M5.90122 30.8503H8.57816C8.91423 30.8503 9.18653 30.5779 9.18653 30.2419C9.18653 29.906 8.91423 29.6335 8.57816 29.6335H5.90122C5.56515 29.6335 5.29285 29.906 5.29285 30.2419C5.29285 30.5779 5.56515 30.8503 5.90122 30.8503Z" fill="black"/>
        <path d="M28.1676 37.0557H16.6695C16.3335 37.0557 16.0612 37.3281 16.0612 37.664C16.0612 38 16.3335 38.2724 16.6695 38.2724H28.1676C28.5037 38.2724 28.776 38 28.776 37.664C28.776 37.3281 28.5037 37.0557 28.1676 37.0557Z" fill="black"/>
        <path d="M5.90122 38.2724H14.7592C15.0953 38.2724 15.3676 38 15.3676 37.664C15.3676 37.3281 15.0953 37.0557 14.7592 37.0557H5.90122C5.56515 37.0557 5.29285 37.3281 5.29285 37.664C5.29285 38 5.56515 38.2724 5.90122 38.2724Z" fill="black"/>
        <path d="M28.1675 40.7666H21.6579C21.3219 40.7666 21.0496 41.039 21.0496 41.375C21.0496 41.7109 21.3219 41.9833 21.6579 41.9833H28.1675C28.5035 41.9833 28.7759 41.7109 28.7759 41.375C28.7759 41.039 28.5035 40.7666 28.1675 40.7666Z" fill="black"/>
        <path d="M19.8452 40.7666H8.95542C8.61935 40.7666 8.34705 41.039 8.34705 41.375C8.34705 41.7109 8.61935 41.9833 8.95542 41.9833H19.8452C20.1813 41.9833 20.4536 41.7109 20.4536 41.375C20.4536 41.039 20.1812 40.7666 19.8452 40.7666Z" fill="black"/>
        <path d="M7.11808 40.7666H5.90122C5.56515 40.7666 5.29285 41.039 5.29285 41.375C5.29285 41.7109 5.56515 41.9833 5.90122 41.9833H7.11808C7.45414 41.9833 7.72645 41.7109 7.72645 41.375C7.72645 41.039 7.45414 40.7666 7.11808 40.7666Z" fill="black"/>
        <path d="M28.1676 33.3445H24.4566C24.1206 33.3445 23.8483 33.6169 23.8483 33.9529C23.8483 34.2888 24.1206 34.5612 24.4566 34.5612H28.1676C28.5036 34.5612 28.7759 34.2888 28.7759 33.9529C28.7759 33.6169 28.5036 33.3445 28.1676 33.3445Z" fill="black"/>
        <path d="M5.90122 34.5612H22.3272C22.6633 34.5612 22.9356 34.2888 22.9356 33.9529C22.9356 33.6169 22.6633 33.3445 22.3272 33.3445H5.90122C5.56515 33.3445 5.29285 33.6169 5.29285 33.9529C5.29285 34.2888 5.56515 34.5612 5.90122 34.5612Z" fill="black"/>
        <path d="M30.5401 15.0667H28.4109C28.0748 15.0667 27.8025 15.3391 27.8025 15.675C27.8025 16.011 28.0748 16.2834 28.4109 16.2834H30.5401C30.8762 16.2834 31.1485 16.011 31.1485 15.675C31.1485 15.3391 30.8762 15.0667 30.5401 15.0667Z" fill="black"/>
        <path d="M30.5402 20.0457H24.9432C24.6071 20.0457 24.3348 20.3181 24.3348 20.654C24.3348 20.99 24.6071 21.2624 24.9432 21.2624H30.5402C30.8763 21.2624 31.1486 20.99 31.1486 20.654C31.1486 20.3181 30.8763 20.0457 30.5402 20.0457Z" fill="black"/>
    </g>
    <defs>
        <clipPath id="clip0">
            <rect width="48" height="48" fill="white"/>
        </clipPath>
    </defs>
</svg>