<svg width="16" height="16" viewBox="0 0 16 16" fill="none" xmlns="http://www.w3.org/2000/svg">
<g clip-path="url(#clip0)">
<path d="M10.4777 8.00008L15.9034 2.5743C16.0336 2.44405 16.0336 2.23292 15.9034 2.10267L13.8989 0.0977288C13.8364 0.035189 13.7513 0 13.6631 0C13.5747 0 13.4898 0.035189 13.4273 0.0977288L8.00134 5.52368L2.57539 0.0977288C2.45031 -0.0273507 2.22884 -0.0273507 2.10376 0.0977288L0.0991519 2.10267C-0.0310975 2.23292 -0.0310975 2.44405 0.0991519 2.5743L5.52493 8.00008L0.0991519 13.4259C-0.0310975 13.5561 -0.0310975 13.7672 0.0991519 13.8975L2.10376 15.9023C2.1663 15.9648 2.25119 16 2.33958 16C2.42796 16 2.51285 15.9648 2.57539 15.9023L8.00134 10.4763L13.4273 15.9023C13.4898 15.9648 13.5747 16 13.6631 16C13.7513 16 13.8364 15.9648 13.8989 15.9023L15.9035 13.8975C16.0338 13.7672 16.0338 13.5559 15.9035 13.4259L10.4777 8.00008Z" fill="#D8D8D8"/>
</g>
<defs>
<clipPath id="clip0">
<rect width="16" height="16" fill="white"/>
</clipPath>
</defs>
</svg>
