<svg width="32" height="32" viewBox="0 0 32 32" fill="none" xmlns="http://www.w3.org/2000/svg">
<path d="M23.9989 0.00665814L19.8492 0C15.1872 0 12.1744 3.09104 12.1744 7.87524V11.5063H8.00205C7.64151 11.5063 7.34955 11.7985 7.34955 12.1591V17.42C7.34955 17.7806 7.64184 18.0725 8.00205 18.0725H12.1744V31.3475C12.1744 31.708 12.4663 32 12.8269 32H18.2706C18.6311 32 18.9231 31.7077 18.9231 31.3475V18.0725H23.8015C24.162 18.0725 24.454 17.7806 24.454 17.42L24.456 12.1591C24.456 11.986 24.3871 11.8202 24.2649 11.6977C24.1427 11.5752 23.9762 11.5063 23.8031 11.5063H18.9231V8.4282C18.9231 6.94876 19.2756 6.19773 21.2028 6.19773L23.9982 6.19673C24.3584 6.19673 24.6504 5.90443 24.6504 5.54423V0.659155C24.6504 0.299283 24.3588 0.00732395 23.9989 0.00665814Z" fill="#383838"/>
</svg>
