<?xml version="1.0" encoding="UTF-8" standalone="no"?>
<svg
   xmlns:dc="http://purl.org/dc/elements/1.1/"
   xmlns:cc="http://creativecommons.org/ns#"
   xmlns:rdf="http://www.w3.org/1999/02/22-rdf-syntax-ns#"
   xmlns:svg="http://www.w3.org/2000/svg"
   xmlns="http://www.w3.org/2000/svg"
   xmlns:sodipodi="http://sodipodi.sourceforge.net/DTD/sodipodi-0.dtd"
   xmlns:inkscape="http://www.inkscape.org/namespaces/inkscape"
   version="1.1"
   id="Capa_1"
   x="0px"
   y="0px"
   viewBox="0 0 512 512"
   style="enable-background:new 0 0 512 512;"
   xml:space="preserve"
   sodipodi:docname="guide.svg"
   inkscape:version="0.92.4 (5da689c313, 2019-01-14)"><metadata
   id="metadata130"><rdf:RDF><cc:Work
       rdf:about=""><dc:format>image/svg+xml</dc:format><dc:type
         rdf:resource="http://purl.org/dc/dcmitype/StillImage" /></cc:Work></rdf:RDF></metadata><defs
   id="defs128" /><sodipodi:namedview
   pagecolor="#ffffff"
   bordercolor="#666666"
   borderopacity="1"
   objecttolerance="10"
   gridtolerance="10"
   guidetolerance="10"
   inkscape:pageopacity="0"
   inkscape:pageshadow="2"
   inkscape:window-width="1920"
   inkscape:window-height="1011"
   id="namedview126"
   showgrid="false"
   inkscape:zoom="1.5976562"
   inkscape:cx="200.25484"
   inkscape:cy="264.83348"
   inkscape:window-x="-9"
   inkscape:window-y="-9"
   inkscape:window-maximized="1"
   inkscape:current-layer="Capa_1" />
<g
   id="g93">
	<g
   id="g91">
		<g
   id="g89">
			<path
   d="M256,162.133c2.263,0.001,4.434-0.898,6.035-2.499c1.6-1.6,2.499-3.771,2.499-6.035V85.333     c0-4.713-3.82-8.533-8.533-8.533s-8.533,3.82-8.533,8.533V153.6c-0.001,2.263,0.898,4.434,2.499,6.035     C251.566,161.235,253.737,162.134,256,162.133z"
   id="path71"
   fill="#F7C332" />
			<path fill="#F7C332"
   d="M 494.933,93.867 H 477.866 V 59.733 C 477.855,50.312 470.22,42.677 460.799,42.666 H 339.002 C 319.837,15.888 288.93,0 256,0 223.07,0 192.163,15.888 172.998,42.667 H 51.2 C 41.779,42.678 34.144,50.312 34.133,59.734 V 93.867 H 17.067 C 7.645,93.877 0.011,101.512 0,110.933 V 460.8 c 0.011,9.421 7.645,17.056 17.067,17.067 202.90557,0.19258 297.54974,0.22781 477.866,0 9.421,-0.011 17.056,-7.645 17.067,-17.067 V 110.933 c -0.011,-9.421 -7.645,-17.056 -17.067,-17.066 z M 348.968,59.733 H 460.8 v 281.6 H 307.2 c -16.07,-0.002 -31.458,6.494 -42.667,18.01 V 204.368 c 33.265,-2.693 63.115,-21.473 79.941,-50.295 16.826,-28.822 18.504,-64.049 4.494,-94.34 z M 307.2,401.067 h 153.6 v 25.6 H 264.533 v -25.6 C 264.561,377.514 283.647,358.428 307.2,358.4 H 460.8 V 384 H 307.2 c -4.713,0 -8.533,3.821 -8.533,8.533 0,4.713 3.82,8.534 8.533,8.534 z m -51.2,-384 c 47.128,0 85.333,38.205 85.333,85.333 0,47.128 -38.205,85.333 -85.333,85.333 -47.128,0 -85.333,-38.205 -85.333,-85.333 C 170.721,55.294 208.894,17.121 256,17.067 Z M 51.2,59.733 h 111.832 c -14.01,30.291 -12.333,65.517 4.493,94.34 16.826,28.822 46.676,47.602 79.941,50.295 V 359.343 C 236.258,347.827 220.87,341.331 204.799,341.333 H 51.2 Z m 0,341.334 h 153.6 c 4.713,0 8.533,-3.821 8.533,-8.533 0,-4.713 -3.821,-8.533 -8.533,-8.533 H 51.2 v -25.6 h 153.6 c 23.553,0.028 42.639,19.114 42.667,42.667 v 25.6 H 51.2 Z M 494.933,460.8 c -237.74987,0.7055 -242.87577,0.42556 -477.866,0 V 110.933 h 17.067 v 315.733 c 0.011,9.421 7.645,17.056 17.067,17.067 h 409.6 c 9.421,-0.011 17.056,-7.645 17.067,-17.067 V 110.933 h 17.067 V 460.8 Z"
   id="path73"
   inkscape:connector-curvature="0"
   style="fill:#f7c332"
   sodipodi:nodetypes="cccccsccccccccccccccccccscscccccccssscsscccccccccccsssccccccccccccccccccc" />
			<path fill="#F7C332"
   d="M341.333,204.8c-0.001,2.263,0.898,4.434,2.499,6.035c1.6,1.6,3.771,2.499,6.035,2.499H435.2     c4.713,0,8.533-3.821,8.533-8.533s-3.82-8.533-8.533-8.533h-85.333c-2.263-0.001-4.434,0.898-6.035,2.499     C342.232,200.366,341.333,202.537,341.333,204.8z"
   id="path75" />
			<path fill="#F7C332"
   d="M435.2,238.933H315.733c-4.713,0-8.533,3.82-8.533,8.533s3.82,8.533,8.533,8.533H435.2c4.713,0,8.533-3.82,8.533-8.533     S439.913,238.933,435.2,238.933z"
   id="path77" />
			<path fill="#F7C332"
   d="M435.2,281.6H315.733c-4.713,0-8.533,3.82-8.533,8.533s3.82,8.533,8.533,8.533H435.2c4.713,0,8.533-3.82,8.533-8.533     S439.913,281.6,435.2,281.6z"
   id="path79" />
			<path fill="#F7C332"
   d="M76.8,213.333h85.333c4.713,0,8.533-3.821,8.533-8.533s-3.82-8.533-8.533-8.533H76.8c-4.713,0-8.533,3.82-8.533,8.533     S72.087,213.333,76.8,213.333z"
   id="path81" />
			<path fill="#F7C332"
   d="M76.8,256h119.467c4.713,0,8.533-3.82,8.533-8.533s-3.82-8.533-8.533-8.533H76.8c-4.713,0-8.533,3.82-8.533,8.533     S72.087,256,76.8,256z"
   id="path83" />
			<path fill="#F7C332"
   d="M196.267,281.6H76.8c-4.713,0-8.533,3.82-8.533,8.533s3.82,8.533,8.533,8.533h119.467c4.713,0,8.533-3.82,8.533-8.533     S200.979,281.6,196.267,281.6z"
   id="path85" />
			<path fill="#F7C332"
   d="M256,59.733c2.263,0.001,4.434-0.898,6.035-2.499c1.6-1.6,2.499-3.771,2.499-6.035v-8.533     c0-4.713-3.82-8.533-8.533-8.533s-8.533,3.82-8.533,8.533V51.2c-0.001,2.263,0.898,4.434,2.499,6.035     C251.566,58.835,253.737,59.734,256,59.733z"
   id="path87" />
		</g>
	</g>
</g>
<g
   id="g95">
</g>
<g
   id="g97">
</g>
<g
   id="g99">
</g>
<g
   id="g101">
</g>
<g
   id="g103">
</g>
<g
   id="g105">
</g>
<g
   id="g107">
</g>
<g
   id="g109">
</g>
<g
   id="g111">
</g>
<g
   id="g113">
</g>
<g
   id="g115">
</g>
<g
   id="g117">
</g>
<g
   id="g119">
</g>
<g
   id="g121">
</g>
<g
   id="g123">
</g>
</svg>