<svg width="48" height="48" viewBox="0 0 48 48" fill="none" xmlns="http://www.w3.org/2000/svg">
<path d="M24 15.1999C24.2121 15.2 24.4156 15.1157 24.5657 14.9656C24.7157 14.8156 24.8 14.6121 24.8 14.3999V7.99992C24.8 7.55808 24.4419 7.19995 24 7.19995C23.5582 7.19995 23.2001 7.55808 23.2001 7.99992V14.4C23.2 14.6121 23.2843 14.8156 23.4344 14.9657C23.5843 15.1157 23.7878 15.2 24 15.1999Z" fill="black"/>
<path d="M46.4 8.80003H44.7999V5.59997C44.7989 4.71675 44.0831 4.00097 43.1999 3.99994H31.7814C29.9847 1.4895 27.0872 0 24 0C20.9128 0 18.0153 1.4895 16.2186 4.00003H4.8C3.91678 4.00106 3.201 4.71675 3.19997 5.60006V8.80003H1.60003C0.716719 8.80097 0.00103125 9.51675 0 10.4V43.2C0.00103125 44.0832 0.716719 44.799 1.60003 44.8C20.6224 44.8181 29.4953 44.8214 46.4 44.8C47.2832 44.799 47.999 44.0833 48 43.2V10.4C47.999 9.51675 47.2833 8.80097 46.4 8.80003ZM32.7157 5.59997H43.2V32H28.8C27.2934 31.9998 25.8508 32.6088 24.8 33.6884V19.1595C27.9186 18.907 30.717 17.1464 32.2944 14.4443C33.8719 11.7423 34.0292 8.43975 32.7157 5.59997V5.59997ZM28.8 37.6H43.2V40H24.8V37.6C24.8026 35.3919 26.5919 33.6026 28.8 33.6H43.2V36H28.8C28.3582 36 28 36.3582 28 36.8C28 37.2418 28.3582 37.6 28.8 37.6ZM24 1.60003C28.4182 1.60003 32 5.18175 32 9.6C32 14.0182 28.4182 17.6 24 17.6C19.5818 17.6 16 14.0182 16 9.6C16.0051 5.18381 19.5838 1.60509 24 1.60003V1.60003ZM4.8 5.59997H15.2842C13.9708 8.43975 14.128 11.7422 15.7055 14.4443C17.2829 17.1464 20.0813 18.907 23.1999 19.1595V33.6884C22.1492 32.6088 20.7066 31.9998 19.1999 32H4.8V5.59997ZM4.8 37.6H19.2C19.6418 37.6 20 37.2418 20 36.8001C20 36.3582 19.6418 36.0001 19.2 36.0001H4.8V33.6001H19.2C21.4081 33.6027 23.1974 35.392 23.2 37.6001V40.0001H4.8V37.6ZM46.4 43.2C24.1109 43.2661 23.6304 43.2399 1.60003 43.2V10.4H3.20006V39.9999C3.20109 40.8832 3.91678 41.5989 4.80009 41.6H43.2001C44.0833 41.5989 44.7991 40.8832 44.8001 39.9999V10.4H46.4002V43.2H46.4Z" fill="black"/>
<path d="M32 19.2C31.9999 19.4122 32.0842 19.6157 32.2343 19.7658C32.3843 19.9158 32.5878 20.0001 32.8001 20.0001H40.8C41.2419 20.0001 41.6 19.6419 41.6 19.2001C41.6 18.7584 41.2419 18.4001 40.8 18.4001H32.8001C32.5879 18.4001 32.3844 18.4843 32.2343 18.6344C32.0843 18.7843 32 18.9879 32 19.2Z" fill="black"/>
<path d="M40.8 22.3999H29.6C29.1582 22.3999 28.8 22.758 28.8 23.1999C28.8 23.6417 29.1582 23.9998 29.6 23.9998H40.8C41.2419 23.9998 41.6 23.6417 41.6 23.1999C41.6 22.758 41.2419 22.3999 40.8 22.3999Z" fill="black"/>
<path d="M40.8 26.3999H29.6C29.1582 26.3999 28.8 26.758 28.8 27.1999C28.8 27.6417 29.1582 27.9998 29.6 27.9998H40.8C41.2419 27.9998 41.6 27.6417 41.6 27.1999C41.6 26.758 41.2419 26.3999 40.8 26.3999Z" fill="black"/>
<path d="M7.19999 19.9998H15.2C15.6418 19.9998 15.9999 19.6416 15.9999 19.1999C15.9999 18.7581 15.6418 18.3999 15.2 18.3999H7.19999C6.75815 18.3999 6.40002 18.758 6.40002 19.1999C6.40002 19.6417 6.75815 19.9998 7.19999 19.9998Z" fill="black"/>
<path d="M7.19999 23.9999H18.4C18.8419 23.9999 19.2 23.6417 19.2 23.1999C19.2 22.758 18.8419 22.3999 18.4 22.3999H7.19999C6.75815 22.3999 6.40002 22.758 6.40002 23.1999C6.40002 23.6417 6.75815 23.9999 7.19999 23.9999Z" fill="black"/>
<path d="M18.4 26.3999H7.19999C6.75815 26.3999 6.40002 26.758 6.40002 27.1999C6.40002 27.6417 6.75815 27.9998 7.19999 27.9998H18.4C18.8419 27.9998 19.2 27.6417 19.2 27.1999C19.2 26.758 18.8418 26.3999 18.4 26.3999Z" fill="black"/>
<path d="M24 5.59995C24.2121 5.60004 24.4156 5.51576 24.5657 5.36567C24.7157 5.21567 24.8 5.01214 24.8 4.79989V3.99992C24.8 3.55808 24.4419 3.19995 24 3.19995C23.5582 3.19995 23.2001 3.55808 23.2001 3.99992V4.79998C23.2 5.01214 23.2843 5.21567 23.4344 5.36576C23.5843 5.51576 23.7878 5.60004 24 5.59995Z" fill="black"/>
</svg>
