<svg width="32" height="32" viewBox="0 0 32 32" fill="none" xmlns="http://www.w3.org/2000/svg">
<g clip-path="url(#clip0)">
<path d="M16.0054 7.78394C11.4681 7.78394 7.79474 11.4613 7.79474 15.9946C7.79474 20.5319 11.4721 24.2053 16.0054 24.2053C20.5427 24.2053 24.2161 20.5279 24.2161 15.9946C24.2161 11.4573 20.5387 7.78394 16.0054 7.78394ZM16.0054 21.3239C13.0601 21.3239 10.6761 18.9386 10.6761 15.9946C10.6761 13.0506 13.0614 10.6653 16.0054 10.6653C18.9494 10.6653 21.3347 13.0506 21.3347 15.9946C21.3361 18.9386 18.9507 21.3239 16.0054 21.3239Z" fill="#383838"/>
<path d="M22.5974 0.101248C19.6534 -0.0360854 12.3614 -0.0294187 9.4147 0.101248C6.82536 0.222581 4.54136 0.847914 2.70003 2.68925C-0.377305 5.76658 0.0160284 9.91325 0.0160284 15.9946C0.0160284 22.2186 -0.330638 26.2692 2.70003 29.2999C5.78936 32.3879 9.99603 31.9839 16.0054 31.9839C22.1707 31.9839 24.2987 31.9879 26.4787 31.1439C29.4427 29.9932 31.68 27.3439 31.8987 22.5852C32.0374 19.6399 32.0294 12.3492 31.8987 9.40258C31.6347 3.78525 28.62 0.378581 22.5974 0.101248ZM27.2574 27.2639C25.24 29.2812 22.4414 29.1012 15.9667 29.1012C9.30003 29.1012 6.6267 29.1999 4.67603 27.2439C2.42936 25.0079 2.83603 21.4172 2.83603 15.9732C2.83603 8.60658 2.08003 3.30125 9.47336 2.92258C11.172 2.86258 11.672 2.84258 15.948 2.84258L16.008 2.88258C23.1134 2.88258 28.688 2.13858 29.0227 9.53058C29.0987 11.2172 29.116 11.7239 29.116 15.9932C29.1147 22.5826 29.24 25.2719 27.2574 27.2639Z" fill="#383838"/>
<path d="M24.5413 9.37884C25.601 9.37884 26.46 8.51982 26.46 7.46017C26.46 6.40052 25.601 5.5415 24.5413 5.5415C23.4817 5.5415 22.6227 6.40052 22.6227 7.46017C22.6227 8.51982 23.4817 9.37884 24.5413 9.37884Z" fill="#383838"/>
</g>
<defs>
<clipPath id="clip0">
<rect width="32" height="32" fill="white"/>
</clipPath>
</defs>
</svg>
