<svg width="16" height="16" viewBox="0 0 16 16" fill="none" xmlns="http://www.w3.org/2000/svg">
<g clip-path="url(#clip0)">
<path d="M15.9737 4.99784C15.7402 2.42723 13.9207 0.562197 11.6436 0.562197C10.1266 0.562197 8.7376 1.37855 7.95601 2.68694C7.18151 1.36163 5.84943 0.56189 4.35673 0.56189C2.07998 0.56189 0.260186 2.42692 0.0269421 4.99753C0.00847948 5.11107 -0.0672172 5.70865 0.16295 6.68317C0.494661 8.08879 1.26086 9.36732 2.37815 10.3797L7.95232 15.4381L13.6222 10.38C14.7395 9.36732 15.5057 8.08909 15.8374 6.68317C16.0676 5.70896 15.9919 5.11138 15.9737 4.99784ZM15.2383 6.54223C14.9355 7.826 14.2336 8.99561 13.2105 9.92243L7.95601 14.6104L2.79172 9.92366C1.76673 8.99499 1.06516 7.82569 0.762061 6.54193C0.544203 5.61972 0.633746 5.09877 0.634054 5.09538L0.63867 5.0643C0.838681 2.81217 2.40216 1.17731 4.35673 1.17731C5.79897 1.17731 7.06858 2.06351 7.67108 3.48975L7.95448 4.16148L8.23788 3.48975C8.83083 2.08536 10.1675 1.17762 11.6439 1.17762C13.5982 1.17762 15.162 2.81248 15.366 5.09384C15.3666 5.09877 15.4561 5.62003 15.2383 6.54223Z" fill="#757575"/>
<path d="M4.92305 2.43225C3.22633 2.43225 1.84595 3.81264 1.84595 5.50935C1.84595 5.67951 1.98349 5.81706 2.15366 5.81706C2.32382 5.81706 2.46137 5.67951 2.46137 5.50935C2.46137 4.15204 3.56574 3.04767 4.92305 3.04767C5.09321 3.04767 5.23076 2.91012 5.23076 2.73996C5.23076 2.5698 5.0929 2.43225 4.92305 2.43225Z" fill="#757575"/>
</g>
<defs>
<clipPath id="clip0">
<rect width="16" height="16" fill="white"/>
</clipPath>
</defs>
</svg>
