<svg width="48" height="48" viewBox="0 0 48 36" fill="none" xmlns="http://www.w3.org/2000/svg">
    <path d="M47.1818 19.5408C46.3417 18.0263 44.9618 16.9298 43.2967 16.4532C41.6317 15.9767 39.8805 16.1769 38.3663 17.0177L36.0585 18.2988L34.7679 16.1832L35.6648 14.7133C38.3325 10.338 36.9448 4.60897 32.5715 1.94206C31.1119 1.05153 29.4409 0.580811 27.7393 0.580811C24.4683 0.580811 21.4996 2.246 19.7978 5.03526L17.5614 8.7007L13.8072 6.61692C12.4292 5.85201 10.8725 5.44757 9.30539 5.44757C5.92654 5.44757 2.81038 7.28114 1.17303 10.2325C-0.0325949 12.4024 -0.320314 14.9117 0.362937 17.2982C1.046 19.6838 2.61725 21.6612 4.78776 22.8665L8.5701 24.9651L23.4993 33.254C23.6162 33.3189 23.743 33.3498 23.8683 33.3498C24.1253 33.3498 24.3757 33.2193 24.5188 32.9848L27.1728 28.6337L31.0893 35.054C31.2321 35.2884 31.4825 35.4189 31.7397 35.4189C31.8649 35.4189 31.9917 35.388 32.1087 35.3232L38.0228 32.0396C38.3903 31.8355 38.5229 31.372 38.3189 31.0045C38.1147 30.6371 37.6515 30.5046 37.2838 30.7085L32.0085 33.6373L27.8239 26.7772C27.8235 26.7766 27.8233 26.7759 27.8228 26.7753L25.6139 23.1544L24.9128 22.0052C24.4816 21.298 24.2386 20.5125 24.193 19.7083C24.1657 19.2258 24.2094 18.7366 24.3264 18.2537C24.6382 16.966 25.4328 15.8768 26.5643 15.1869C26.6264 15.1491 26.6891 15.1133 26.7523 15.0784C26.7722 15.0675 26.7922 15.0567 26.8122 15.046C26.8585 15.0212 26.9052 14.9973 26.9521 14.9741C26.9725 14.9641 26.9926 14.9535 27.0131 14.9436C27.0692 14.9168 27.1256 14.8914 27.1823 14.8668C27.2181 14.8513 27.2542 14.8366 27.2902 14.8219C27.3141 14.8122 27.3382 14.8027 27.3623 14.7934C27.5062 14.7377 27.6524 14.6884 27.8006 14.6465C27.8034 14.6457 27.8063 14.6449 27.8091 14.6441C28.1846 14.5385 28.5719 14.4776 28.9635 14.4633C28.9711 14.4631 28.9789 14.4629 28.9864 14.4626C29.0387 14.461 29.0909 14.4599 29.1432 14.4599C29.2395 14.4599 29.3355 14.4632 29.4309 14.4687C29.446 14.4696 29.4612 14.4707 29.4763 14.4717C29.5543 14.4768 29.6318 14.4842 29.7091 14.4931C29.733 14.4958 29.7571 14.4982 29.7811 14.5014C29.8519 14.5105 29.9221 14.5218 29.992 14.5338C30.0169 14.5382 30.042 14.5415 30.0668 14.5462C30.1535 14.5625 30.2392 14.5814 30.3244 14.6021C30.3616 14.6111 30.3981 14.6218 30.4349 14.6317C30.4885 14.6462 30.542 14.6607 30.595 14.6768C30.6296 14.6873 30.6638 14.6987 30.6981 14.7099C30.7571 14.7293 30.8158 14.7494 30.8738 14.771C30.8995 14.7805 30.9251 14.79 30.9506 14.7998C31.0292 14.8305 31.1071 14.8624 31.184 14.897C31.1886 14.8991 31.1933 14.901 31.1978 14.903C31.8248 15.1871 32.39 15.601 32.8537 16.1226C32.8646 16.1349 32.8755 16.1473 32.8862 16.1597C32.9376 16.2187 32.9875 16.2793 33.0363 16.3411C33.0494 16.3577 33.0628 16.3741 33.0756 16.3908C33.1301 16.4615 33.1829 16.5337 33.2339 16.6078C33.2855 16.683 33.3359 16.7596 33.3838 16.8381L35.1392 19.7154C35.3519 20.0641 35.8017 20.1826 36.1584 19.9845L39.1052 18.3488C40.2637 17.7055 41.6032 17.5521 42.8777 17.9169C44.1517 18.2816 45.2075 19.1206 45.8506 20.2797C46.4941 21.438 46.6476 22.7774 46.283 24.0513C45.9183 25.325 45.0793 26.3809 43.9207 27.0242L39.5031 29.476C39.1356 29.6801 39.003 30.1435 39.2071 30.511C39.4111 30.8787 39.8744 31.0113 40.2421 30.807L44.6597 28.3554C46.1738 27.5146 47.2702 26.1349 47.7467 24.4704C48.2235 22.8053 48.0227 21.0544 47.1818 19.5408ZM33.7782 14.8817C33.7765 14.8799 33.7745 14.8783 33.7729 14.8765C33.2495 14.3421 32.6392 13.9047 31.964 13.5809C31.9622 13.5799 31.9605 13.5791 31.9587 13.5782C31.876 13.5387 31.7922 13.5012 31.7075 13.4651C31.6887 13.4569 31.67 13.4486 31.651 13.4406C31.5843 13.4128 31.5166 13.3867 31.4487 13.3611C31.4112 13.3469 31.3741 13.3324 31.3363 13.3189C31.2852 13.3007 31.2334 13.2839 31.1818 13.267C31.1275 13.2491 31.0734 13.2311 31.0186 13.2146C30.9792 13.2028 30.9392 13.1921 30.8995 13.181C30.8338 13.1626 30.7682 13.1445 30.7019 13.1281C30.6924 13.1257 30.6833 13.1229 30.674 13.1206C30.646 13.1137 30.618 13.1087 30.5901 13.1024C30.524 13.0873 30.4578 13.0724 30.3911 13.0593C30.3427 13.0498 30.2942 13.0419 30.2456 13.0336C30.1921 13.0243 30.1387 13.0148 30.0848 13.0068C30.0139 12.9963 29.9428 12.9881 29.8719 12.9799C29.8411 12.9765 29.8103 12.9722 29.7794 12.9691C29.6785 12.9591 29.5777 12.9516 29.4768 12.9462C29.4747 12.9461 29.4728 12.9459 29.4708 12.9458C29.2869 12.9362 29.1035 12.9352 28.9205 12.9413C28.9204 12.9413 28.9203 12.9413 28.9202 12.9413C28.1965 12.9657 27.4831 13.112 26.8044 13.3768C26.7786 13.3868 26.7528 13.3969 26.7272 13.4073C26.6763 13.428 26.6254 13.4487 26.575 13.4705C26.5066 13.5001 26.4386 13.531 26.3711 13.563C26.3381 13.5787 26.3056 13.5951 26.2728 13.6115C26.2136 13.6409 26.1547 13.671 26.0962 13.7023C26.0693 13.7167 26.0424 13.7311 26.0157 13.746C25.9334 13.7914 25.8515 13.8381 25.771 13.8872C24.2925 14.7888 23.2537 16.2123 22.8463 17.8956C22.4388 19.5784 22.7111 21.3194 23.6127 22.7982L26.2808 27.1721L23.5993 31.5684L9.30886 23.6339L5.52651 21.5355C3.7116 20.5277 2.39769 18.8741 1.82656 16.8792C1.25544 14.8842 1.49591 12.7862 2.5041 10.9717C3.87341 8.50355 6.47938 6.97026 9.3052 6.97026C10.6144 6.97026 11.9156 7.30851 13.0681 7.94826L17.4611 10.3866C17.8182 10.5846 18.2677 10.466 18.4803 10.1175L21.0973 5.82829C22.5203 3.49588 25.0032 2.10341 27.739 2.10341C29.1608 2.10341 30.5575 2.49716 31.7784 3.242C35.4351 5.47195 36.5952 10.2625 34.3647 13.9205L33.7782 14.8817Z" fill="black"/>
</svg>