<svg width="80" height="80" viewBox="0 0 80 80" fill="none" xmlns="http://www.w3.org/2000/svg">
<rect width="80" height="80" fill="white"/>
<path d="M20.446 64.0628V60.8584C20.4645 60.5889 20.4259 60.3185 20.333 60.0653C20.2401 59.812 20.095 59.5817 19.9072 59.3897C19.7195 59.1976 19.4934 59.0483 19.2442 58.9516C18.9949 58.8549 18.7281 58.8131 18.4617 58.8289C18.1128 58.8058 17.7643 58.8778 17.4524 59.0375C17.1405 59.1972 16.8766 59.4387 16.6884 59.7368C16.5169 59.4477 16.2714 59.2107 15.9779 59.0509C15.6844 58.8911 15.3537 58.8144 15.0207 58.8289C14.7305 58.8141 14.4414 58.8762 14.1822 59.0093C13.923 59.1423 13.7027 59.3415 13.543 59.5873V58.9571H12.4453V64.0628H13.5536V61.2536C13.53 61.079 13.5448 60.9013 13.597 60.7332C13.6492 60.565 13.7374 60.4107 13.8554 60.2811C13.9734 60.1515 14.1182 60.0498 14.2795 59.9834C14.4408 59.9171 14.6146 59.8876 14.7885 59.8971C15.5168 59.8971 15.8862 60.3777 15.8862 61.2429V64.0842H16.9945V61.2536C16.9719 61.0792 16.9874 60.9018 17.0399 60.7342C17.0925 60.5665 17.1808 60.4125 17.2985 60.2831C17.4163 60.1537 17.5607 60.0521 17.7216 59.9854C17.8825 59.9187 18.0558 59.8885 18.2295 59.8971C18.9789 59.8971 19.3377 60.3777 19.3377 61.2429V64.0842L20.446 64.0628ZM36.8432 58.9571H35.0383V57.4083H33.93V58.9571H32.9273V59.9718H33.9511V62.3217C33.9511 63.5074 34.405 64.2124 35.7032 64.2124C36.1883 64.214 36.6639 64.077 37.0754 63.8171L36.7587 62.8665C36.4644 63.0442 36.1303 63.1434 35.7877 63.1549C35.2599 63.1549 35.0594 62.8131 35.0594 62.3004V59.9718H36.8537L36.8432 58.9571ZM46.2055 58.8289C45.9378 58.8209 45.673 58.8862 45.439 59.0178C45.2049 59.1494 45.0102 59.3424 44.8755 59.5766V58.9571H43.7884V64.0628H44.8861V61.2002C44.8861 60.3564 45.245 59.8864 45.9416 59.8864C46.1764 59.8831 46.4095 59.9267 46.6277 60.0145L46.9654 58.9464C46.7147 58.8556 46.4506 58.8087 46.1844 58.8075L46.2055 58.8289ZM32.0512 59.363C31.4299 58.9891 30.7155 58.8037 29.993 58.8289C28.7158 58.8289 27.882 59.4484 27.882 60.4632C27.882 61.2963 28.4942 61.809 29.6236 61.9693L30.1513 62.044C30.753 62.1295 31.0379 62.2897 31.0379 62.5781C31.0379 62.9733 30.6368 63.1976 29.8874 63.1976C29.2846 63.2153 28.6935 63.0272 28.2092 62.6635L27.6814 63.5287C28.3209 63.9806 29.0868 64.2127 29.8663 64.191C31.3229 64.191 32.1673 63.4967 32.1673 62.5247C32.1673 61.5527 31.5024 61.1575 30.4046 60.9972L29.8769 60.9225C29.4019 60.8584 29.0219 60.7623 29.0219 60.4204C29.0219 60.0786 29.3808 59.8223 29.9824 59.8223C30.5385 59.8288 31.0836 59.9796 31.5657 60.2602L32.0512 59.363ZM61.4522 58.8289C61.1845 58.8209 60.9197 58.8862 60.6856 59.0178C60.4516 59.1494 60.2569 59.3424 60.1222 59.5766V58.9571H59.0351V64.0628H60.1328V61.2002C60.1328 60.3564 60.4917 59.8864 61.1883 59.8864C61.4231 59.8831 61.6562 59.9267 61.8744 60.0145L62.2121 58.9464C61.9614 58.8556 61.6973 58.8087 61.431 58.8075L61.4522 58.8289ZM47.3085 61.4993C47.2954 61.8581 47.3565 62.2157 47.4879 62.5492C47.6192 62.8827 47.8179 63.1848 48.0713 63.4362C48.3246 63.6875 48.627 63.8826 48.9591 64.0089C49.2912 64.1352 49.6458 64.1899 50 64.1696C50.6591 64.2036 51.3068 63.9863 51.8154 63.5608L51.2877 62.6635C50.9082 62.9564 50.4455 63.1175 49.9683 63.1228C49.5626 63.0896 49.184 62.903 48.908 62.6002C48.632 62.2974 48.4788 61.9005 48.4788 61.4886C48.4788 61.0766 48.632 60.6798 48.908 60.3769C49.184 60.0741 49.5626 59.8875 49.9683 59.8543C50.4455 59.8597 50.9082 60.0208 51.2877 60.3136L51.8154 59.4164C51.3068 58.9908 50.6591 58.7736 50 58.8075C49.6458 58.7872 49.2912 58.842 48.9591 58.9683C48.627 59.0946 48.3246 59.2896 48.0713 59.541C47.8179 59.7923 47.6192 60.0944 47.4879 60.428C47.3565 60.7615 47.2954 61.1191 47.3085 61.4779V61.4993ZM57.589 61.4993V58.9571H56.4913V59.5766C56.3049 59.3339 56.0641 59.1395 55.7888 59.0095C55.5135 58.8795 55.2116 58.8176 54.9081 58.8289C54.2082 58.8289 53.537 59.1103 53.0422 59.611C52.5473 60.1118 52.2693 60.791 52.2693 61.4993C52.2693 62.2075 52.5473 62.8867 53.0422 63.3875C53.537 63.8883 54.2082 64.1696 54.9081 64.1696C55.2116 64.181 55.5135 64.1191 55.7888 63.9891C56.0641 63.8591 56.3049 63.6647 56.4913 63.4219V64.0415H57.589V61.4993ZM53.5042 61.4993C53.5217 61.1987 53.6257 60.9099 53.8034 60.6684C53.981 60.4269 54.2246 60.2433 54.504 60.1401C54.7835 60.0369 55.0867 60.0187 55.3763 60.0877C55.6659 60.1567 55.9292 60.3098 56.1338 60.5284C56.3385 60.7469 56.4755 61.0212 56.528 61.3175C56.5806 61.6139 56.5463 61.9193 56.4295 62.1961C56.3127 62.473 56.1184 62.7093 55.8706 62.8758C55.6228 63.0424 55.3322 63.132 55.0347 63.1335C54.8258 63.1362 54.6185 63.0951 54.426 63.0128C54.2335 62.9305 54.0599 62.8087 53.9162 62.6552C53.7724 62.5017 53.6616 62.3198 53.5907 62.1209C53.5198 61.9219 53.4904 61.7103 53.5042 61.4993ZM40.2577 58.8289C39.5579 58.8388 38.8906 59.1297 38.4027 59.6375C37.9147 60.1453 37.6461 60.8284 37.6559 61.5367C37.6657 62.2449 37.9531 62.9202 38.4549 63.4139C38.9567 63.9077 39.6318 64.1795 40.3316 64.1696C41.0909 64.2091 41.8376 63.9616 42.4268 63.4753L41.899 62.6529C41.4823 62.9911 40.966 63.179 40.4319 63.1869C40.069 63.2185 39.7083 63.1056 39.4264 62.8722C39.1446 62.6388 38.9638 62.3034 38.9225 61.9372H42.6695C42.6695 61.7983 42.6695 61.6595 42.6695 61.51C42.6695 59.9077 41.6879 58.8396 40.2736 58.8396L40.2577 58.8289ZM40.2577 59.8223C40.422 59.8187 40.5853 59.848 40.7384 59.9083C40.8915 59.9687 41.0314 60.059 41.15 60.174C41.2686 60.2891 41.3636 60.4267 41.4296 60.5789C41.4957 60.7312 41.5314 60.8951 41.5349 61.0613H38.8961C38.9152 60.7185 39.0662 60.3968 39.3168 60.1653C39.5673 59.9337 39.8975 59.8106 40.2366 59.8223H40.2577ZM67.7588 61.51V56.9062H66.7033V59.5766C66.5168 59.3339 66.2761 59.1395 66.0008 59.0095C65.7255 58.8795 65.4236 58.8176 65.12 58.8289C64.4202 58.8289 63.749 59.1103 63.2541 59.611C62.7593 60.1118 62.4813 60.791 62.4813 61.4993C62.4813 62.2075 62.7593 62.8867 63.2541 63.3875C63.749 63.8883 64.4202 64.1696 65.12 64.1696C65.4236 64.181 65.7255 64.1191 66.0008 63.9891C66.2761 63.8591 66.5168 63.6647 66.7033 63.4219V64.0415H67.7588V61.51ZM69.5901 63.3205C69.6587 63.3196 69.7268 63.3323 69.7906 63.3578C69.8512 63.3829 69.9067 63.4191 69.9542 63.4647C70.0006 63.5107 70.0381 63.565 70.065 63.6249C70.0918 63.6872 70.1056 63.7545 70.1056 63.8225C70.1056 63.8905 70.0918 63.9577 70.065 64.0201C70.0381 64.0799 70.0006 64.1343 69.9542 64.1803C69.9067 64.2259 69.8512 64.2621 69.7906 64.2871C69.7274 64.3153 69.6591 64.3299 69.5901 64.3299C69.49 64.3291 69.3922 64.2996 69.3082 64.2447C69.2241 64.1899 69.1571 64.112 69.1151 64.0201C69.0887 63.9576 69.075 63.8904 69.075 63.8225C69.075 63.7545 69.0887 63.6873 69.1151 63.6249C69.142 63.565 69.1795 63.5107 69.2259 63.4647C69.2734 63.4191 69.3289 63.3829 69.3895 63.3578C69.4582 63.3302 69.532 63.3174 69.6059 63.3205H69.5901ZM69.5901 64.223C69.6427 64.2234 69.6949 64.2124 69.7431 64.191C69.7885 64.1705 69.8297 64.1415 69.8645 64.1055C69.9305 64.0327 69.9671 63.9374 69.9671 63.8385C69.9671 63.7396 69.9305 63.6444 69.8645 63.5715C69.8298 63.5354 69.7886 63.5064 69.7431 63.486C69.6948 63.4647 69.6427 63.4538 69.5901 63.454C69.5374 63.4543 69.4854 63.4651 69.437 63.486C69.3896 63.5057 69.3465 63.5347 69.3104 63.5715C69.2443 63.6444 69.2077 63.7396 69.2077 63.8385C69.2077 63.9374 69.2443 64.0327 69.3104 64.1055C69.3466 64.1422 69.3897 64.1712 69.437 64.191C69.4902 64.2142 69.5479 64.2252 69.6059 64.223H69.5901ZM69.6217 63.5875C69.671 63.5851 69.7195 63.6002 69.7589 63.6302C69.7751 63.6437 69.7878 63.661 69.7961 63.6805C69.8043 63.7 69.8079 63.7212 69.8064 63.7424C69.8072 63.7601 69.8043 63.7778 69.7979 63.7944C69.7916 63.8109 69.7819 63.8259 69.7695 63.8385C69.7389 63.8666 69.6999 63.8835 69.6587 63.8866L69.8117 64.0628H69.6903L69.5478 63.8866H69.5003V64.0628H69.4001V63.5928L69.6217 63.5875ZM69.5056 63.6783V63.8065H69.6217C69.6424 63.8127 69.6644 63.8127 69.685 63.8065C69.6888 63.799 69.6907 63.7908 69.6907 63.7824C69.6907 63.7741 69.6888 63.7659 69.685 63.7584C69.6888 63.7509 69.6907 63.7427 69.6907 63.7344C69.6907 63.726 69.6888 63.7178 69.685 63.7103C69.6644 63.7041 69.6424 63.7041 69.6217 63.7103L69.5056 63.6783ZM63.7004 61.51C63.7179 61.2094 63.8218 60.9206 63.9995 60.6791C64.1771 60.4376 64.4207 60.254 64.7002 60.1508C64.9796 60.0476 65.2828 60.0294 65.5724 60.0984C65.862 60.1674 66.1253 60.3205 66.33 60.5391C66.5346 60.7576 66.6716 61.0319 66.7242 61.3282C66.7767 61.6245 66.7424 61.9299 66.6256 62.2068C66.5088 62.4837 66.3145 62.72 66.0667 62.8865C65.8189 63.0531 65.5283 63.1426 65.2308 63.1442C65.0219 63.1469 64.8146 63.1058 64.6221 63.0235C64.4296 62.9411 64.2561 62.8194 64.1123 62.6659C63.9686 62.5124 63.8578 62.3305 63.7869 62.1315C63.716 61.9326 63.6865 61.721 63.7004 61.51ZM26.6365 61.51V58.9571H25.5388V59.5766C25.3524 59.3339 25.1116 59.1395 24.8363 59.0095C24.561 58.8795 24.2591 58.8176 23.9555 58.8289C23.2557 58.8289 22.5845 59.1103 22.0897 59.611C21.5948 60.1118 21.3168 60.791 21.3168 61.4993C21.3168 62.2075 21.5948 62.8867 22.0897 63.3875C22.5845 63.8883 23.2557 64.1696 23.9555 64.1696C24.2591 64.181 24.561 64.1191 24.8363 63.9891C25.1116 63.8591 25.3524 63.6647 25.5388 63.4219V64.0415H26.6365V61.51ZM22.5517 61.51C22.5692 61.2094 22.6732 60.9206 22.8508 60.6791C23.0285 60.4376 23.272 60.254 23.5515 60.1508C23.831 60.0476 24.1342 60.0294 24.4238 60.0984C24.7133 60.1674 24.9767 60.3205 25.1813 60.5391C25.3859 60.7576 25.523 61.0319 25.5755 61.3282C25.628 61.6245 25.5938 61.9299 25.477 62.2068C25.3602 62.4837 25.1659 62.72 24.9181 62.8865C24.6702 63.0531 24.3797 63.1426 24.0822 63.1442C23.8724 63.1484 23.6639 63.1084 23.4702 63.0267C23.2764 62.9451 23.1016 62.8236 22.9567 62.6699C22.8118 62.5162 22.7 62.3338 22.6285 62.1341C22.557 61.9344 22.5272 61.7219 22.5412 61.51H22.5517Z" fill="#231F20"/>
<path d="M48.3116 20.0498H31.6875V50.2837H48.3116V20.0498Z" fill="#FF5F00"/>
<path d="M32.7438 35.1702C32.7407 32.2581 33.3925 29.3834 34.6497 26.7639C35.9069 24.1443 37.7367 21.8486 40.0004 20.0506C37.1975 17.8215 33.8316 16.4354 30.2871 16.0506C26.7426 15.6658 23.1627 16.298 19.9565 17.8748C16.7502 19.4516 14.047 21.9094 12.1558 24.9674C10.2646 28.0253 9.26172 31.56 9.26172 35.1675C9.26172 38.775 10.2646 42.3098 12.1558 45.3677C14.047 48.4257 16.7502 50.8835 19.9565 52.4603C23.1627 54.0371 26.7426 54.6693 30.2871 54.2845C33.8316 53.8997 37.1975 52.5136 40.0004 50.2845C37.7374 48.487 35.9081 46.1922 34.6509 43.5736C33.3937 40.9551 32.7415 38.0815 32.7438 35.1702Z" fill="#EB001B"/>
<path d="M70.7414 35.1695C70.7413 38.7773 69.7382 42.3122 67.8467 45.3703C65.9551 48.4284 63.2515 50.8862 60.0449 52.4627C56.8382 54.0393 53.2579 54.671 49.7133 54.2857C46.1686 53.9004 42.8026 52.5136 40 50.2838C42.2621 48.4847 44.0909 46.1892 45.3484 43.5706C46.6059 40.9519 47.2594 38.0784 47.2594 35.1668C47.2594 32.2553 46.6059 29.3818 45.3484 26.7631C44.0909 24.1444 42.2621 21.849 40 20.0499C42.8026 17.8201 46.1686 16.4333 49.7133 16.048C53.2579 15.6627 56.8382 16.2944 60.0449 17.871C63.2515 19.4475 65.9551 21.9053 67.8467 24.9634C69.7382 28.0215 70.7413 31.5564 70.7414 35.1642V35.1695Z" fill="#F79E1B"/>
<path d="M68.9269 47.0792V46.4597H69.1749V46.3315H68.5469V46.4597H68.816V47.0792H68.9269ZM70.146 47.0792V46.3315H69.956L69.7343 46.8656L69.5127 46.3315H69.3438V47.0792H69.481V46.5185L69.6868 47.0045H69.8293L70.0351 46.5185V47.0846L70.146 47.0792Z" fill="#F79E1B"/>
</svg>
