<svg width="48" height="48" viewBox="0 0 48 48" fill="none" xmlns="http://www.w3.org/2000/svg">
<path d="M47.0667 28.2318C46.4736 27.9044 45.721 27.9764 45.0018 28.4291L31.7152 36.7957C31.3454 37.0286 31.2345 37.5171 31.4673 37.8868C31.7002 38.2566 32.1887 38.3676 32.5584 38.1347L45.845 29.7682C46.1256 29.5915 46.2792 29.6044 46.3019 29.6171C46.3249 29.6298 46.4175 29.7527 46.4175 30.0842C46.4175 30.9755 45.7559 32.1739 45.0018 32.6489L32.1211 40.7597C31.4363 41.191 30.8102 41.3096 30.4033 41.0851C29.9965 40.8605 29.7633 40.2675 29.7633 39.4581C29.7633 37.4075 31.2292 34.752 32.9645 33.6594L47.6305 24.4243C47.8605 24.2795 48 24.0266 48 23.7547C48 23.4829 47.8604 23.23 47.6305 23.0852L19.4496 5.3397C19.192 5.17746 18.864 5.17746 18.6064 5.3397L3.76189 14.6873C1.65245 16.0156 0 19.0088 0 21.5016V21.9236C0 24.4164 1.65245 27.4097 3.76189 28.7379L25.8408 42.641C26.2106 42.8738 26.6991 42.7627 26.9319 42.3931C27.1647 42.0233 27.0538 41.5348 26.684 41.302L4.6051 27.3989C2.96658 26.3673 1.5824 23.8598 1.5824 21.9236V21.5016C1.5824 19.5654 2.96658 17.058 4.6051 16.0263L19.0279 6.94426L45.724 23.7546L32.1212 32.3203C29.9117 33.7116 28.1809 36.8469 28.1809 39.4581C28.1809 40.8817 28.6985 41.9515 29.6386 42.4704C30.0161 42.6789 30.4325 42.7822 30.8738 42.7822C31.5311 42.7822 32.2436 42.5527 32.9643 42.0988L45.845 33.9879C47.0534 33.227 47.9999 31.5123 47.9999 30.0842C47.9999 29.2344 47.6598 28.5592 47.0667 28.2318Z" fill="black"/>
<path d="M37.3092 24.546C37.5721 24.546 37.8291 24.4151 37.9795 24.1764C38.2123 23.8066 38.1013 23.3181 37.7316 23.0852L19.4496 11.5732C19.0797 11.3403 18.5913 11.4514 18.3585 11.8211C18.1256 12.1908 18.2366 12.6794 18.6064 12.9122L36.8884 24.4243C37.0193 24.5067 37.1651 24.546 37.3092 24.546Z" fill="black"/>
<path d="M34.1461 26.6455C34.4095 26.6455 34.667 26.5141 34.8171 26.2745C35.0493 25.9043 34.9374 25.416 34.5671 25.1839L26.8438 20.3413C26.4734 20.109 25.9852 20.2211 25.7532 20.5913C25.521 20.9616 25.633 21.4498 26.0032 21.6819L33.7265 26.5245C33.8571 26.6065 34.0024 26.6455 34.1461 26.6455Z" fill="black"/>
<path d="M23.6203 22.4237C23.2497 22.1922 22.7616 22.3051 22.5301 22.6758C22.2987 23.0465 22.4115 23.5345 22.7822 23.766L30.5648 28.6252C30.6952 28.7065 30.8399 28.7454 30.9831 28.7454C31.2469 28.7454 31.505 28.6134 31.655 28.3731C31.8864 28.0024 31.7735 27.5143 31.4028 27.2829L23.6203 22.4237Z" fill="black"/>
<path d="M15.3186 13.6436L8.7432 17.7847C8.51249 17.9299 8.37282 18.1837 8.37366 18.4564C8.3745 18.7291 8.51555 18.9821 8.74711 19.1261L16.589 24.0019C16.7169 24.0814 16.8618 24.1212 17.0067 24.1212C17.1562 24.1212 17.3056 24.0789 17.4362 23.9945L19.1827 22.8657C19.5497 22.6285 19.6549 22.1388 19.4178 21.7718C19.1806 21.4048 18.6908 21.2997 18.3238 21.5367L16.9986 22.3932L10.6564 18.4499L15.7412 15.2477L21.9911 19.1664L21.2624 19.6373C20.8954 19.8746 20.7902 20.3643 21.0274 20.7313C21.2646 21.0983 21.7546 21.2035 22.1213 20.9663L23.8936 19.8208C24.1208 19.6739 24.2572 19.4213 24.2554 19.1508C24.2535 18.8804 24.1136 18.6297 23.8845 18.486L16.1604 13.6429C15.903 13.4814 15.5758 13.4817 15.3186 13.6436Z" fill="black"/>
<path d="M28.4926 30.4716C28.7233 30.1004 28.6096 29.6126 28.2385 29.3819L20.3964 24.5059C20.0253 24.2751 19.5374 24.3889 19.3068 24.7601C19.0761 25.1312 19.1898 25.619 19.5609 25.8497L27.403 30.7257C27.5329 30.8066 27.6774 30.8451 27.82 30.8451C28.0844 30.8451 28.3428 30.7126 28.4926 30.4716Z" fill="black"/>
<path d="M5.64674 20.346C5.41603 20.7172 5.52975 21.205 5.90088 21.4357L25.2566 33.4705C25.3866 33.5514 25.531 33.5899 25.6736 33.5899C25.938 33.5899 26.1964 33.4574 26.3462 33.2163C26.5769 32.8452 26.4632 32.3574 26.0921 32.1267L6.73639 20.0919C6.36526 19.861 5.87746 19.9749 5.64674 20.346Z" fill="black"/>
</svg>
