<svg width="48" height="48" viewBox="0 0 48 48" fill="none" xmlns="http://www.w3.org/2000/svg">
	<path d="M36.7759 16.635H7.4668C7.07839 16.635 6.76367 16.9498 6.76367 17.3381C6.76367 17.7265 7.07839 18.0413 7.4668 18.0413H36.7759C37.1643 18.0413 37.479 17.7265 37.479 17.3381C37.479 16.9498 37.1643 16.635 36.7759 16.635Z" fill="black"/>
	<path d="M26.2547 12.8774H7.4668C7.07839 12.8774 6.76367 13.1923 6.76367 13.5806C6.76367 13.9689 7.07839 14.2837 7.4668 14.2837H26.2547C26.6431 14.2837 26.9578 13.9689 26.9578 13.5806C26.9578 13.1922 26.6431 12.8774 26.2547 12.8774Z" fill="black"/>
	<path d="M36.7757 12.8774H29.2606C28.8722 12.8774 28.5575 13.1923 28.5575 13.5806C28.5575 13.9689 28.8722 14.2837 29.2606 14.2837H36.7757C37.1642 14.2837 37.4789 13.9689 37.4789 13.5806C37.4789 13.1922 37.1642 12.8774 36.7757 12.8774Z" fill="black"/>
	<path d="M17.2364 20.3923H7.4668C7.07839 20.3923 6.76367 20.7071 6.76367 21.0955C6.76367 21.4838 7.07839 21.7986 7.4668 21.7986H17.2364C17.6248 21.7986 17.9396 21.4838 17.9396 21.0955C17.9396 20.7072 17.6248 20.3923 17.2364 20.3923Z" fill="black"/>
	<path d="M36.7759 20.3923H21.7452C21.3568 20.3923 21.0421 20.7071 21.0421 21.0955C21.0421 21.4838 21.3568 21.7986 21.7452 21.7986H36.7759C37.1643 21.7986 37.479 21.4838 37.479 21.0955C37.479 20.7072 37.1643 20.3923 36.7759 20.3923Z" fill="black"/>
	<path d="M11.2244 9.11987H7.4668C7.07839 9.11987 6.76367 9.43469 6.76367 9.823C6.76367 10.2113 7.07849 10.5261 7.4668 10.5261H11.2244C11.6128 10.5261 11.9275 10.2113 11.9275 9.823C11.9275 9.43478 11.6128 9.11987 11.2244 9.11987Z" fill="black"/>
	<path d="M36.776 9.11987H14.2308C13.8424 9.11987 13.5277 9.43469 13.5277 9.823C13.5277 10.2113 13.8424 10.5261 14.2308 10.5261H36.776C37.1644 10.5261 37.4791 10.2113 37.4791 9.823C37.4791 9.43478 37.1644 9.11987 36.776 9.11987Z" fill="black"/>
	<path d="M29.2605 24.1501H7.4668C7.07839 24.1501 6.76367 24.465 6.76367 24.8533C6.76367 25.2416 7.07839 25.5564 7.4668 25.5564H29.2605C29.6489 25.5564 29.9636 25.2416 29.9636 24.8533C29.9636 24.4649 29.6489 24.1501 29.2605 24.1501Z" fill="black"/>
	<path d="M36.7759 24.1501H32.2665C31.8781 24.1501 31.5634 24.465 31.5634 24.8533C31.5634 25.2416 31.8781 25.5564 32.2665 25.5564H36.7759C37.1643 25.5564 37.479 25.2416 37.479 24.8533C37.479 24.4649 37.1643 24.1501 36.7759 24.1501Z" fill="black"/>
	<path d="M44.291 7.61668H43.4912V6.81681C43.4912 4.77155 41.8273 3.10767 39.782 3.10767H3.70914C1.66398 3.10767 0 4.77155 0 6.81671V27.8592C0 29.9044 1.66398 31.5683 3.70914 31.5683H4.50902V32.3682C4.50902 34.4134 6.17299 36.0773 8.21816 36.0773H13.809L13.2269 38.5997C13.091 39.188 13.3256 39.7881 13.8243 40.1284C14.0734 40.2983 14.3588 40.3834 14.6442 40.3833C14.9302 40.3833 15.2162 40.2979 15.4656 40.1273L20.7049 36.5426L32.5344 44.6364C32.7838 44.8071 33.0698 44.8924 33.3558 44.8924C33.6412 44.8924 33.9266 44.8075 34.1757 44.6375C34.6744 44.2972 34.909 43.6971 34.7731 43.1088L33.1505 36.0773H44.2909C46.3361 36.0773 48 34.4134 48 32.3682V11.3259C48.0002 9.28066 46.3363 7.61668 44.291 7.61668ZM8.21825 34.6714C6.9484 34.6713 5.91537 33.6381 5.91537 32.3684V31.5685H14.8496L14.1336 34.6714H8.21825ZM14.6716 38.967C14.657 38.977 14.6445 38.9857 14.617 38.967C14.5897 38.9483 14.5932 38.9335 14.5971 38.9162L16.4185 31.0234C16.4668 30.8147 16.417 30.5953 16.2837 30.4276C16.1503 30.2599 15.9477 30.1622 15.7335 30.1622H3.70914C2.43938 30.1621 1.40626 29.129 1.40626 27.8593V6.81671C1.40626 5.54686 2.43938 4.51383 3.70914 4.51383H39.7818C41.0517 4.51383 42.0847 5.54696 42.0847 6.81671V27.8592C42.0847 29.129 41.0516 30.1621 39.7818 30.1621H27.7577C27.616 30.1621 27.4777 30.2049 27.3607 30.2849L14.6716 38.967ZM44.291 34.6711H32.2668C32.0526 34.6711 31.85 34.7688 31.7166 34.9365C31.5832 35.1042 31.5335 35.3235 31.5818 35.5323L33.4032 43.425C33.4071 43.4423 33.4106 43.4572 33.3833 43.4758C33.356 43.4944 33.3434 43.4858 33.3287 43.4758L21.9501 35.6908L27.9752 31.5684H39.7819C41.8272 31.5684 43.4911 29.9044 43.4911 27.8593V9.02294H44.291C45.5608 9.02294 46.5938 10.0561 46.5938 11.3258V32.3683H46.5939C46.5939 33.6381 45.5608 34.6711 44.291 34.6711Z" fill="black"/>
</svg>