<svg width="133" height="30" viewBox="0 0 133 30" fill="none" xmlns="http://www.w3.org/2000/svg">
<path d="M44.72 21.7C45.2133 21.7 45.66 21.8133 46.06 22.04C46.46 22.26 46.7733 22.5733 47 22.98C47.2267 23.3867 47.34 23.85 47.34 24.37C47.34 24.8967 47.2267 25.3633 47 25.77C46.7733 26.1767 46.46 26.4933 46.06 26.72C45.6667 26.94 45.22 27.05 44.72 27.05C44.2933 27.05 43.9067 26.9633 43.56 26.79C43.22 26.61 42.94 26.35 42.72 26.01V28.94H42.01V21.74H42.69V22.78C42.9033 22.4333 43.1833 22.1667 43.53 21.98C43.8833 21.7933 44.28 21.7 44.72 21.7ZM44.67 26.42C45.0367 26.42 45.37 26.3367 45.67 26.17C45.97 25.9967 46.2033 25.7533 46.37 25.44C46.5433 25.1267 46.63 24.77 46.63 24.37C46.63 23.97 46.5433 23.6167 46.37 23.31C46.2033 22.9967 45.97 22.7533 45.67 22.58C45.37 22.4067 45.0367 22.32 44.67 22.32C44.2967 22.32 43.96 22.4067 43.66 22.58C43.3667 22.7533 43.1333 22.9967 42.96 23.31C42.7933 23.6167 42.71 23.97 42.71 24.37C42.71 24.77 42.7933 25.1267 42.96 25.44C43.1333 25.7533 43.3667 25.9967 43.66 26.17C43.96 26.3367 44.2967 26.42 44.67 26.42ZM50.6462 21.7C51.3328 21.7 51.8595 21.8733 52.2262 22.22C52.5928 22.56 52.7762 23.0667 52.7762 23.74V27H52.0962V26.18C51.9362 26.4533 51.6995 26.6667 51.3862 26.82C51.0795 26.9733 50.7128 27.05 50.2862 27.05C49.6995 27.05 49.2328 26.91 48.8862 26.63C48.5395 26.35 48.3662 25.98 48.3662 25.52C48.3662 25.0733 48.5262 24.7133 48.8462 24.44C49.1728 24.1667 49.6895 24.03 50.3962 24.03H52.0662V23.71C52.0662 23.2567 51.9395 22.9133 51.6862 22.68C51.4328 22.44 51.0628 22.32 50.5762 22.32C50.2428 22.32 49.9228 22.3767 49.6162 22.49C49.3095 22.5967 49.0462 22.7467 48.8262 22.94L48.5062 22.41C48.7728 22.1833 49.0928 22.01 49.4662 21.89C49.8395 21.7633 50.2328 21.7 50.6462 21.7ZM50.3962 26.49C50.7962 26.49 51.1395 26.4 51.4262 26.22C51.7128 26.0333 51.9262 25.7667 52.0662 25.42V24.56H50.4162C49.5162 24.56 49.0662 24.8733 49.0662 25.5C49.0662 25.8067 49.1828 26.05 49.4162 26.23C49.6495 26.4033 49.9762 26.49 50.3962 26.49ZM57.1188 24.26C57.4922 24.3467 57.7788 24.4967 57.9788 24.71C58.1855 24.9233 58.2888 25.1833 58.2888 25.49C58.2888 25.7967 58.1822 26.07 57.9688 26.31C57.7622 26.55 57.4788 26.7367 57.1188 26.87C56.7588 26.9967 56.3622 27.06 55.9288 27.06C55.5488 27.06 55.1755 27.0067 54.8088 26.9C54.4422 26.7867 54.1222 26.6233 53.8488 26.41L54.0888 25.88C54.3288 26.06 54.6088 26.2 54.9288 26.3C55.2488 26.4 55.5722 26.45 55.8988 26.45C56.3855 26.45 56.7822 26.36 57.0888 26.18C57.4022 25.9933 57.5588 25.7433 57.5588 25.43C57.5588 25.15 57.4322 24.9333 57.1788 24.78C56.9255 24.62 56.5788 24.54 56.1388 24.54H55.2388V24.02H56.0988C56.4922 24.02 56.8088 23.9467 57.0488 23.8C57.2888 23.6467 57.4088 23.4433 57.4088 23.19C57.4088 22.91 57.2722 22.69 56.9988 22.53C56.7322 22.37 56.3822 22.29 55.9488 22.29C55.3822 22.29 54.8222 22.4333 54.2688 22.72L54.0688 22.17C54.6955 21.8433 55.3455 21.68 56.0188 21.68C56.4188 21.68 56.7788 21.74 57.0988 21.86C57.4255 21.9733 57.6788 22.1367 57.8588 22.35C58.0455 22.5633 58.1388 22.81 58.1388 23.09C58.1388 23.3567 58.0455 23.5933 57.8588 23.8C57.6788 24.0067 57.4322 24.16 57.1188 24.26ZM62.6106 21.7C63.104 21.7 63.5506 21.8133 63.9506 22.04C64.3506 22.26 64.664 22.5733 64.8906 22.98C65.1173 23.3867 65.2306 23.85 65.2306 24.37C65.2306 24.8967 65.1173 25.3633 64.8906 25.77C64.664 26.1767 64.3506 26.4933 63.9506 26.72C63.5573 26.94 63.1106 27.05 62.6106 27.05C62.184 27.05 61.7973 26.9633 61.4506 26.79C61.1106 26.61 60.8306 26.35 60.6106 26.01V28.94H59.9006V21.74H60.5806V22.78C60.794 22.4333 61.074 22.1667 61.4206 21.98C61.774 21.7933 62.1706 21.7 62.6106 21.7ZM62.5606 26.42C62.9273 26.42 63.2606 26.3367 63.5606 26.17C63.8606 25.9967 64.094 25.7533 64.2606 25.44C64.434 25.1267 64.5206 24.77 64.5206 24.37C64.5206 23.97 64.434 23.6167 64.2606 23.31C64.094 22.9967 63.8606 22.7533 63.5606 22.58C63.2606 22.4067 62.9273 22.32 62.5606 22.32C62.1873 22.32 61.8506 22.4067 61.5506 22.58C61.2573 22.7533 61.024 22.9967 60.8506 23.31C60.684 23.6167 60.6006 23.97 60.6006 24.37C60.6006 24.77 60.684 25.1267 60.8506 25.44C61.024 25.7533 61.2573 25.9967 61.5506 26.17C61.8506 26.3367 62.1873 26.42 62.5606 26.42ZM68.5368 21.7C69.2235 21.7 69.7501 21.8733 70.1168 22.22C70.4835 22.56 70.6668 23.0667 70.6668 23.74V27H69.9868V26.18C69.8268 26.4533 69.5901 26.6667 69.2768 26.82C68.9701 26.9733 68.6035 27.05 68.1768 27.05C67.5901 27.05 67.1235 26.91 66.7768 26.63C66.4301 26.35 66.2568 25.98 66.2568 25.52C66.2568 25.0733 66.4168 24.7133 66.7368 24.44C67.0635 24.1667 67.5801 24.03 68.2868 24.03H69.9568V23.71C69.9568 23.2567 69.8301 22.9133 69.5768 22.68C69.3235 22.44 68.9535 22.32 68.4668 22.32C68.1335 22.32 67.8135 22.3767 67.5068 22.49C67.2001 22.5967 66.9368 22.7467 66.7168 22.94L66.3968 22.41C66.6635 22.1833 66.9835 22.01 67.3568 21.89C67.7301 21.7633 68.1235 21.7 68.5368 21.7ZM68.2868 26.49C68.6868 26.49 69.0301 26.4 69.3168 26.22C69.6035 26.0333 69.8168 25.7667 69.9568 25.42V24.56H68.3068C67.4068 24.56 66.9568 24.8733 66.9568 25.5C66.9568 25.8067 67.0735 26.05 67.3068 26.23C67.5401 26.4033 67.8668 26.49 68.2868 26.49ZM75.1069 21.87C75.5935 21.87 76.0269 21.98 76.4069 22.2C76.7935 22.4133 77.0935 22.7167 77.3069 23.11C77.5202 23.4967 77.6269 23.94 77.6269 24.44C77.6269 24.9533 77.5135 25.41 77.2869 25.81C77.0669 26.2033 76.7569 26.51 76.3569 26.73C75.9569 26.95 75.4969 27.06 74.9769 27.06C74.1035 27.06 73.4269 26.7533 72.9469 26.14C72.4669 25.5267 72.2269 24.68 72.2269 23.6C72.2269 22.4733 72.4402 21.61 72.8669 21.01C73.3002 20.41 73.9735 20.0033 74.8869 19.79L77.2469 19.25L77.3669 19.9L75.1469 20.41C74.3935 20.5767 73.8402 20.8733 73.4869 21.3C73.1335 21.72 72.9402 22.3433 72.9069 23.17C73.1202 22.7633 73.4169 22.4467 73.7969 22.22C74.1769 21.9867 74.6135 21.87 75.1069 21.87ZM74.9969 26.47C75.3635 26.47 75.6902 26.3867 75.9769 26.22C76.2702 26.0467 76.4969 25.8067 76.6569 25.5C76.8235 25.1933 76.9069 24.8467 76.9069 24.46C76.9069 24.0733 76.8269 23.7333 76.6669 23.44C76.5069 23.1467 76.2802 22.92 75.9869 22.76C75.7002 22.5933 75.3702 22.51 74.9969 22.51C74.6235 22.51 74.2902 22.5933 73.9969 22.76C73.7102 22.92 73.4835 23.1467 73.3169 23.44C73.1569 23.7333 73.0769 24.0733 73.0769 24.46C73.0769 24.8467 73.1569 25.1933 73.3169 25.5C73.4835 25.8067 73.7135 26.0467 74.0069 26.22C74.3002 26.3867 74.6302 26.47 74.9969 26.47ZM81.3187 27.05C80.812 27.05 80.3553 26.9367 79.9487 26.71C79.542 26.4767 79.222 26.1567 78.9887 25.75C78.7553 25.3433 78.6387 24.8833 78.6387 24.37C78.6387 23.8567 78.7553 23.3967 78.9887 22.99C79.222 22.5833 79.542 22.2667 79.9487 22.04C80.3553 21.8133 80.812 21.7 81.3187 21.7C81.8253 21.7 82.282 21.8133 82.6887 22.04C83.0953 22.2667 83.412 22.5833 83.6387 22.99C83.872 23.3967 83.9887 23.8567 83.9887 24.37C83.9887 24.8833 83.872 25.3433 83.6387 25.75C83.412 26.1567 83.0953 26.4767 82.6887 26.71C82.282 26.9367 81.8253 27.05 81.3187 27.05ZM81.3187 26.42C81.692 26.42 82.0253 26.3367 82.3187 26.17C82.6187 25.9967 82.852 25.7533 83.0187 25.44C83.1853 25.1267 83.2687 24.77 83.2687 24.37C83.2687 23.97 83.1853 23.6133 83.0187 23.3C82.852 22.9867 82.6187 22.7467 82.3187 22.58C82.0253 22.4067 81.692 22.32 81.3187 22.32C80.9453 22.32 80.6087 22.4067 80.3087 22.58C80.0153 22.7467 79.782 22.9867 79.6087 23.3C79.442 23.6133 79.3587 23.97 79.3587 24.37C79.3587 24.77 79.442 25.1267 79.6087 25.44C79.782 25.7533 80.0153 25.9967 80.3087 26.17C80.6087 26.3367 80.9453 26.42 81.3187 26.42ZM89.0108 22.37H87.0208V27H86.3108V22.37H84.3208V21.74H89.0108V22.37ZM91.9473 24.66H90.7473V27H90.0373V21.74H90.7473V24.05H91.9573L93.8073 21.74H94.5773L92.5073 24.29L94.7273 27H93.8873L91.9473 24.66ZM97.5602 21.7C98.2469 21.7 98.7736 21.8733 99.1402 22.22C99.5069 22.56 99.6902 23.0667 99.6902 23.74V27H99.0102V26.18C98.8502 26.4533 98.6136 26.6667 98.3002 26.82C97.9936 26.9733 97.6269 27.05 97.2002 27.05C96.6136 27.05 96.1469 26.91 95.8002 26.63C95.4536 26.35 95.2802 25.98 95.2802 25.52C95.2802 25.0733 95.4402 24.7133 95.7602 24.44C96.0869 24.1667 96.6036 24.03 97.3102 24.03H98.9802V23.71C98.9802 23.2567 98.8536 22.9133 98.6002 22.68C98.3469 22.44 97.9769 22.32 97.4902 22.32C97.1569 22.32 96.8369 22.3767 96.5302 22.49C96.2236 22.5967 95.9602 22.7467 95.7402 22.94L95.4202 22.41C95.6869 22.1833 96.0069 22.01 96.3802 21.89C96.7536 21.7633 97.1469 21.7 97.5602 21.7ZM97.3102 26.49C97.7102 26.49 98.0536 26.4 98.3402 26.22C98.6269 26.0333 98.8402 25.7667 98.9802 25.42V24.56H97.3302C96.4302 24.56 95.9802 24.8733 95.9802 25.5C95.9802 25.8067 96.0969 26.05 96.3302 26.23C96.5636 26.4033 96.8902 26.49 97.3102 26.49ZM106.398 27.05C105.878 27.05 105.411 26.9367 104.998 26.71C104.591 26.4833 104.271 26.1667 104.038 25.76C103.804 25.3467 103.688 24.8833 103.688 24.37C103.688 23.8567 103.804 23.3967 104.038 22.99C104.271 22.5833 104.591 22.2667 104.998 22.04C105.411 21.8133 105.878 21.7 106.398 21.7C106.851 21.7 107.254 21.79 107.608 21.97C107.968 22.1433 108.251 22.4 108.458 22.74L107.928 23.1C107.754 22.84 107.534 22.6467 107.268 22.52C107.001 22.3867 106.711 22.32 106.398 22.32C106.018 22.32 105.674 22.4067 105.368 22.58C105.068 22.7467 104.831 22.9867 104.657 23.3C104.491 23.6133 104.408 23.97 104.408 24.37C104.408 24.7767 104.491 25.1367 104.657 25.45C104.831 25.7567 105.068 25.9967 105.368 26.17C105.674 26.3367 106.018 26.42 106.398 26.42C106.711 26.42 107.001 26.3567 107.268 26.23C107.534 26.1033 107.754 25.91 107.928 25.65L108.458 26.01C108.251 26.35 107.968 26.61 107.608 26.79C107.248 26.9633 106.844 27.05 106.398 27.05ZM111.642 21.7C112.329 21.7 112.856 21.8733 113.222 22.22C113.589 22.56 113.772 23.0667 113.772 23.74V27H113.092V26.18C112.932 26.4533 112.696 26.6667 112.382 26.82C112.076 26.9733 111.709 27.05 111.282 27.05C110.696 27.05 110.229 26.91 109.882 26.63C109.536 26.35 109.362 25.98 109.362 25.52C109.362 25.0733 109.522 24.7133 109.842 24.44C110.169 24.1667 110.686 24.03 111.392 24.03H113.062V23.71C113.062 23.2567 112.936 22.9133 112.682 22.68C112.429 22.44 112.059 22.32 111.572 22.32C111.239 22.32 110.919 22.3767 110.612 22.49C110.306 22.5967 110.042 22.7467 109.822 22.94L109.502 22.41C109.769 22.1833 110.089 22.01 110.462 21.89C110.836 21.7633 111.229 21.7 111.642 21.7ZM111.392 26.49C111.792 26.49 112.136 26.4 112.422 26.22C112.709 26.0333 112.922 25.7667 113.062 25.42V24.56H111.412C110.512 24.56 110.062 24.8733 110.062 25.5C110.062 25.8067 110.179 26.05 110.412 26.23C110.646 26.4033 110.972 26.49 111.392 26.49ZM115.662 21.74H116.372V25.92L119.882 21.74H120.512V27H119.802V22.82L116.302 27H115.662V21.74ZM118.052 20.98C117.599 20.98 117.239 20.8667 116.972 20.64C116.706 20.4133 116.569 20.0933 116.562 19.68H117.072C117.079 19.94 117.172 20.15 117.352 20.31C117.532 20.4633 117.766 20.54 118.052 20.54C118.339 20.54 118.572 20.4633 118.752 20.31C118.939 20.15 119.036 19.94 119.042 19.68H119.552C119.546 20.0933 119.406 20.4133 119.132 20.64C118.866 20.8667 118.506 20.98 118.052 20.98ZM126.247 22.37H124.257V27H123.547V22.37H121.557V21.74H126.247V22.37ZM129.084 21.7C129.77 21.7 130.297 21.8733 130.664 22.22C131.03 22.56 131.214 23.0667 131.214 23.74V27H130.534V26.18C130.374 26.4533 130.137 26.6667 129.824 26.82C129.517 26.9733 129.15 27.05 128.724 27.05C128.137 27.05 127.67 26.91 127.324 26.63C126.977 26.35 126.804 25.98 126.804 25.52C126.804 25.0733 126.964 24.7133 127.284 24.44C127.61 24.1667 128.127 24.03 128.834 24.03H130.504V23.71C130.504 23.2567 130.377 22.9133 130.124 22.68C129.87 22.44 129.5 22.32 129.014 22.32C128.68 22.32 128.36 22.3767 128.054 22.49C127.747 22.5967 127.484 22.7467 127.264 22.94L126.944 22.41C127.21 22.1833 127.53 22.01 127.904 21.89C128.277 21.7633 128.67 21.7 129.084 21.7ZM128.834 26.49C129.234 26.49 129.577 26.4 129.864 26.22C130.15 26.0333 130.364 25.7667 130.504 25.42V24.56H128.854C127.954 24.56 127.504 24.8733 127.504 25.5C127.504 25.8067 127.62 26.05 127.854 26.23C128.087 26.4033 128.414 26.49 128.834 26.49Z" fill="#000614"/>
<path d="M25 0H5C3.67392 0 2.40215 0.526784 1.46447 1.46447C0.526784 2.40215 0 3.67392 0 5V25C0 26.3261 0.526784 27.5979 1.46447 28.5355C2.40215 29.4732 3.67392 30 5 30H25C26.3261 30 27.5979 29.4732 28.5355 28.5355C29.4732 27.5979 30 26.3261 30 25V5C30 3.67392 29.4732 2.40215 28.5355 1.46447C27.5979 0.526784 26.3261 0 25 0ZM12.32 20.05L8.32 13.05H12.82L16.82 20.05H12.32ZM22 25L15 13H19.5C20.1885 13.0147 20.8652 12.8194 21.44 12.44C21.8186 12.0564 22.0309 11.539 22.0309 11C22.0309 10.461 21.8186 9.94365 21.44 9.56C21.2491 9.37583 21.0235 9.23147 20.7763 9.13533C20.529 9.03919 20.2652 8.99319 20 9H6L3.5 5H20C21.1859 5.00104 22.3449 5.3535 23.3307 6.01286C24.3164 6.67222 25.0846 7.60891 25.5383 8.70461C25.992 9.80032 26.1108 11.0059 25.8797 12.1691C25.6486 13.3323 25.0781 14.4009 24.24 15.24C23.5329 15.9528 22.655 16.4726 21.69 16.75L26.5 25H22Z" fill="#000614"/>
<path d="M50.064 13L47.344 9.175C47.038 9.209 46.7207 9.226 46.392 9.226H43.196V13H41.938V1.1H46.392C47.9107 1.1 49.1007 1.46267 49.962 2.188C50.8233 2.91333 51.254 3.91067 51.254 5.18C51.254 6.10933 51.016 6.897 50.54 7.543C50.0753 8.17767 49.4067 8.63667 48.534 8.92L51.441 13H50.064ZM46.358 8.155C47.5367 8.155 48.4377 7.89433 49.061 7.373C49.6843 6.85167 49.996 6.12067 49.996 5.18C49.996 4.21667 49.6843 3.48 49.061 2.97C48.4377 2.44867 47.5367 2.188 46.358 2.188H43.196V8.155H46.358ZM54.2232 1.1H55.4812V13H54.2232V1.1ZM64.521 13.102C63.3424 13.102 62.277 12.8413 61.325 12.32C60.3844 11.7987 59.642 11.079 59.098 10.161C58.5654 9.23167 58.299 8.19467 58.299 7.05C58.299 5.90533 58.5654 4.874 59.098 3.956C59.642 3.02667 60.39 2.30133 61.342 1.78C62.294 1.25867 63.3594 0.998001 64.538 0.998001C65.422 0.998001 66.238 1.14533 66.986 1.44C67.734 1.73467 68.3687 2.16533 68.89 2.732L68.091 3.531C67.1617 2.59033 65.9887 2.12 64.572 2.12C63.6314 2.12 62.7757 2.33533 62.005 2.766C61.2344 3.19667 60.628 3.786 60.186 4.534C59.7554 5.282 59.54 6.12067 59.54 7.05C59.54 7.97933 59.7554 8.818 60.186 9.566C60.628 10.314 61.2344 10.9033 62.005 11.334C62.7757 11.7647 63.6314 11.98 64.572 11.98C66 11.98 67.173 11.504 68.091 10.552L68.89 11.351C68.3687 11.9177 67.7284 12.354 66.969 12.66C66.221 12.9547 65.405 13.102 64.521 13.102ZM81.5168 1.1V13H80.2758V7.509H72.8298V13H71.5718V1.1H72.8298V6.404H80.2758V1.1H81.5168ZM92.8979 6.863C93.6799 7.033 94.2806 7.373 94.6999 7.883C95.1306 8.38167 95.3459 9.02767 95.3459 9.821C95.3459 10.841 94.9662 11.6287 94.2069 12.184C93.4589 12.728 92.3482 13 90.8749 13H85.4009V1.1H90.5349C91.8609 1.1 92.8866 1.36633 93.6119 1.899C94.3486 2.43167 94.7169 3.18533 94.7169 4.16C94.7169 4.81733 94.5526 5.37833 94.2239 5.843C93.9066 6.29633 93.4646 6.63633 92.8979 6.863ZM86.6589 2.137V6.455H90.4499C91.4132 6.455 92.1556 6.27367 92.6769 5.911C93.1982 5.537 93.4589 4.99867 93.4589 4.296C93.4589 3.59333 93.1982 3.06067 92.6769 2.698C92.1556 2.324 91.4132 2.137 90.4499 2.137H86.6589ZM90.8579 11.963C91.9232 11.963 92.7279 11.7817 93.2719 11.419C93.8159 11.0563 94.0879 10.4897 94.0879 9.719C94.0879 8.23433 93.0112 7.492 90.8579 7.492H86.6589V11.963H90.8579ZM106.632 11.912V13H98.2173V1.1H106.377V2.188H99.4753V6.421H105.629V7.492H99.4753V11.912H106.632ZM118.004 11.912V13H109.589V1.1H117.749V2.188H110.847V6.421H117.001V7.492H110.847V11.912H118.004Z" fill="#000614"/>
</svg>
