<svg width="24" height="24" viewBox="0 0 24 24" fill="none" xmlns="http://www.w3.org/2000/svg">
<path d="M23.7906 22.7761L17.9582 16.9437C19.5228 15.145 20.47 12.7982 20.47 10.2333C20.47 4.58714 15.8775 0 10.2367 0C4.59062 0 0.003479 4.59246 0.003479 10.2333C0.003479 15.8741 4.59594 20.4665 10.2367 20.4665C12.8017 20.4665 15.1485 19.5193 16.9472 17.9548L22.7795 23.7871C22.9179 23.9255 23.1041 24 23.2851 24C23.466 24 23.6523 23.9308 23.7906 23.7871C24.0673 23.5104 24.0673 23.0528 23.7906 22.7761ZM1.43496 10.2333C1.43496 5.38004 5.38352 1.43681 10.2314 1.43681C15.0846 1.43681 19.0279 5.38537 19.0279 10.2333C19.0279 15.0812 15.0846 19.035 10.2314 19.035C5.38352 19.035 1.43496 15.0865 1.43496 10.2333Z" fill="black"/>
</svg>
