<svg width="36" height="36" viewBox="0 0 36 36" fill="none" xmlns="http://www.w3.org/2000/svg">
<g clip-path="url(#clip0)">
<path d="M27.6141 0H8.41415C6.75797 0.00192261 5.41599 1.3439 5.41406 3.00009V32.9999C5.41599 34.6561 6.75797 35.9981 8.41415 36H27.6141C29.2701 35.9981 30.612 34.6561 30.614 32.9999V3.00009C30.612 1.3439 29.2701 0.00192261 27.6141 0V0ZM29.414 32.9999C29.414 33.9942 28.6081 34.8 27.6141 34.8H8.41415C7.41989 34.8 6.61404 33.9942 6.61404 32.9999V3.00009C6.61404 2.00583 7.41989 1.19998 8.41415 1.19998H27.6141C28.6081 1.19998 29.414 2.00583 29.414 3.00009V32.9999Z" fill="#626262"/>
<path d="M27.0144 2.40002H9.01443C8.35168 2.40002 7.81445 2.93726 7.81445 3.60001V30.0002C7.81445 30.6629 8.35168 31.2001 9.01443 31.2001H27.0144C27.6772 31.2001 28.2144 30.6629 28.2144 30.0002V3.60001C28.2144 2.93726 27.6772 2.40002 27.0144 2.40002ZM9.01443 30.0002V3.60001H27.0144V30.0002H9.01443Z" fill="#626262"/>
<path d="M18.6146 32.4H17.4146C17.0831 32.4 16.8145 32.6686 16.8145 32.9999C16.8145 33.3314 17.0831 33.6 17.4146 33.6H18.6146C18.9458 33.6 19.2144 33.3314 19.2144 32.9999C19.2144 32.6686 18.9458 32.4 18.6146 32.4Z" fill="#626262"/>
<path d="M10.814 7.19998H13.214C13.5452 7.19998 13.8138 6.93137 13.8138 6.60013C13.8138 6.26862 13.5452 6 13.214 6H10.814C10.4825 6 10.2139 6.26862 10.2139 6.60013C10.2139 6.93137 10.4825 7.19998 10.814 7.19998Z" fill="#626262"/>
<path d="M25.2139 6H15.6138C15.2823 6 15.0137 6.26862 15.0137 6.60013C15.0137 6.93137 15.2823 7.20026 15.6138 7.20026H25.2139C25.5452 7.20026 25.8138 6.93137 25.8138 6.60013C25.8138 6.26862 25.5452 6 25.2139 6Z" fill="#626262"/>
<path d="M25.2141 9.60022H10.814C10.4825 9.60022 10.2139 9.86884 10.2139 10.2001C10.2139 10.5316 10.4825 10.8002 10.814 10.8002H25.2141C25.5453 10.8002 25.8139 10.5316 25.8139 10.2001C25.8139 9.86884 25.5453 9.60022 25.2141 9.60022Z" fill="#626262"/>
<path d="M25.2141 13.2001H10.814C10.4825 13.2001 10.2139 13.4687 10.2139 13.7999C10.2139 14.1314 10.4825 14.4001 10.814 14.4001H25.2141C25.5453 14.4001 25.8139 14.1314 25.8139 13.7999C25.8139 13.4687 25.5453 13.2001 25.2141 13.2001Z" fill="#626262"/>
<path d="M10.814 17.9999H21.6138C21.9453 17.9999 22.214 17.7313 22.214 17.4001C22.214 17.0685 21.9453 16.7999 21.6138 16.7999H10.814C10.4825 16.7999 10.2139 17.0685 10.2139 17.4001C10.2139 17.7313 10.4825 17.9999 10.814 17.9999Z" fill="#626262"/>
<path d="M25.2142 16.7999H24.0139C23.6827 16.7999 23.4141 17.0685 23.4141 17.4001C23.4141 17.7313 23.6827 17.9999 24.0139 17.9999H25.2142C25.5454 17.9999 25.814 17.7313 25.814 17.4001C25.814 17.0685 25.5454 16.7999 25.2142 16.7999Z" fill="#626262"/>
<path d="M25.2141 20.3999H10.814C10.4825 20.3999 10.2139 20.6685 10.2139 21C10.2139 21.3313 10.4825 21.5999 10.814 21.5999H25.2141C25.5453 21.5999 25.8139 21.3313 25.8139 21C25.8139 20.6685 25.5453 20.3999 25.2141 20.3999Z" fill="#626262"/>
<path d="M12.014 24H10.814C10.4825 24 10.2139 24.2686 10.2139 24.6001C10.2139 24.9314 10.4825 25.2 10.814 25.2H12.014C12.3452 25.2 12.6141 24.9314 12.6141 24.6001C12.6141 24.2686 12.3452 24 12.014 24Z" fill="#626262"/>
<path d="M25.2137 24H14.4136C14.0824 24 13.8135 24.2686 13.8135 24.6001C13.8135 24.9314 14.0824 25.2 14.4136 25.2H25.2137C25.545 25.2 25.8136 24.9314 25.8136 24.6001C25.8136 24.2686 25.545 24 25.2137 24Z" fill="#626262"/>
</g>
<defs>
<clipPath id="clip0">
<rect width="36" height="36" fill="white"/>
</clipPath>
</defs>
</svg>
