<svg width="32" height="32" viewBox="0 0 32 32" fill="none" xmlns="http://www.w3.org/2000/svg">
<path d="M11.4347 0.666903C7.83442 1.73706 4.72582 4.04058 2.65406 7.17356C2.36954 7.68692 2.19187 8.2525 2.13178 8.83634V3.21911H0V11.7462H8.52711V9.61444H3.7093C6.09609 5.02279 10.8138 2.11511 15.9883 2.04663C22.1249 2.11798 27.5037 6.16723 29.2693 12.0447L31.3158 11.4371C28.7999 2.97296 19.8989 -1.849 11.4347 0.666903Z" fill="#626262"/>
<path d="M23.4489 20.2733V22.4051H28.2667C25.8799 26.9967 21.1621 29.9044 15.9876 29.9729C9.85112 29.9015 4.47231 25.8523 2.70666 19.9749L0.660156 20.5824C3.18685 29.0433 12.0941 33.8539 20.555 31.3272C24.2608 30.2206 27.4399 27.8081 29.5031 24.5369C29.7242 24.1197 29.8412 23.6553 29.8442 23.1832V28.8004H31.976V20.2733H23.4489Z" fill="#626262"/>
</svg>
