<svg width="40" height="40" viewBox="0 0 40 40" fill="none" xmlns="http://www.w3.org/2000/svg">
<g clip-path="url(#clip0)">
<path d="M36.3177 15.0625H35.4684C35.1926 14.1992 34.8445 13.3606 34.4276 12.5549L35.029 11.9535C36.4872 10.4969 36.4481 8.1625 35.0295 6.74531L33.2552 4.97109C31.8388 3.55289 29.504 3.5118 28.047 4.97055L27.4451 5.57242C26.6394 5.15555 25.8007 4.80742 24.9375 4.53156V3.68227C24.9375 1.65187 23.2856 0 21.2552 0H18.7448C16.7144 0 15.0625 1.65187 15.0625 3.68227V4.53156C14.1993 4.80734 13.3606 5.15547 12.5549 5.57242L11.9536 4.97109C10.4995 3.51523 8.16469 3.54938 6.74547 4.97063L4.97102 6.74492C3.55289 8.16148 3.51188 10.496 4.97055 11.9531L5.57242 12.555C5.15547 13.3607 4.80742 14.1992 4.53156 15.0626H3.68234C1.65195 15.0625 0 16.7144 0 18.7448V21.2552C0 23.2856 1.65195 24.9375 3.68234 24.9375H4.53156C4.80742 25.8008 5.15547 26.6394 5.57242 27.4451L4.97102 28.0465C3.51281 29.5031 3.55188 31.8375 4.97055 33.2547L6.74484 35.0289C8.16117 36.4471 10.496 36.4882 11.953 35.0295L12.5549 34.4276C13.3606 34.8445 14.1993 35.1926 15.0625 35.4684V36.3177C15.0625 38.3481 16.7145 40 18.7448 40H21.2552C23.2856 40 24.9376 38.3481 24.9376 36.3177V35.4684C25.8008 35.1927 26.6395 34.8445 27.4452 34.4276L28.0465 35.0289C29.5006 36.4848 31.8353 36.4506 33.2546 35.0294L35.0291 33.255C36.4472 31.8384 36.4882 29.5039 35.0295 28.0468L34.4277 27.4449C34.8446 26.6392 35.1927 25.8007 35.4685 24.9373H36.3177C38.3481 24.9373 40.0001 23.2855 40.0001 21.2551V18.7446C40 16.7144 38.348 15.0625 36.3177 15.0625V15.0625ZM20 28.7031C15.201 28.7031 11.2969 24.7989 11.2969 20C11.2969 15.2011 15.201 11.2969 20 11.2969C24.799 11.2969 28.7031 15.2011 28.7031 20C28.7031 24.7989 24.799 28.7031 20 28.7031Z" fill="#EFEFEF"/>
</g>
<defs>
<clipPath id="clip0">
<rect width="40" height="40" fill="white"/>
</clipPath>
</defs>
</svg>
