<svg width="36" height="36" viewBox="0 0 36 36" fill="none" xmlns="http://www.w3.org/2000/svg">
<path d="M31.2002 0H7.2002C5.5442 0.00195 4.20215 1.344 4.2002 3V33C4.20215 34.656 5.5442 35.9981 7.2002 36H31.2002C31.5315 36 31.8002 35.7314 31.8002 35.4V0.6C31.8002 0.26865 31.5315 0 31.2002 0ZM24.0002 1.2H27.6002V6.8292L26.0684 6.063C25.8996 5.97862 25.7008 5.97862 25.532 6.063L24.0002 6.8292V1.2ZM5.4002 3C5.4002 2.00588 6.20607 1.2 7.2002 1.2H7.8002V28.8H7.2002C6.5489 28.8022 5.91642 29.0186 5.4002 29.4156V3ZM30.6002 31.8H7.8002V33H30.6002V34.8H7.2002C6.20607 34.8 5.4002 33.9941 5.4002 33V31.8C5.4002 30.8059 6.20607 30 7.2002 30H30.6002V31.8ZM30.6002 28.8H9.0002V1.2H22.8002V7.8C22.8 8.13135 23.0685 8.40015 23.3999 8.4003C23.4931 8.40038 23.585 8.3787 23.6684 8.337L25.8002 7.2708L27.932 8.34C28.2284 8.48813 28.5888 8.3679 28.7369 8.0715C28.779 7.9872 28.8007 7.8942 28.8002 7.8V1.2H30.6002V28.8V28.8Z" fill="#626262"/>
</svg>
