<svg width="80" height="80" viewBox="0 0 80 80" fill="none" xmlns="http://www.w3.org/2000/svg">
<rect width="80" height="80" fill="#FCFBFB"/>
<g clip-path="url(#clip0)">
<path d="M34.1997 51.6684H28.3672L32.0153 29.4038H37.8474L34.1997 51.6684Z" fill="#00579F"/>
<path d="M55.3436 29.9479C54.1931 29.4974 52.3685 29 50.1123 29C44.3525 29 40.2965 32.0316 40.2716 36.3659C40.2238 39.5638 43.1756 41.3399 45.3833 42.4062C47.6398 43.4957 48.4069 44.2069 48.4069 45.1781C48.3839 46.6696 46.5835 47.3572 44.9043 47.3572C42.5757 47.3572 41.328 47.0027 39.4318 46.1729L38.6638 45.8171L37.8477 50.8151C39.2156 51.4302 41.7359 51.9761 44.3525 52C50.4724 52 54.4566 49.0153 54.5038 44.3964C54.5271 41.8619 52.9684 39.9198 49.608 38.3329C47.5681 37.3141 46.3188 36.6272 46.3188 35.5849C46.3427 34.6373 47.3754 33.6667 49.6782 33.6667C51.5743 33.6192 52.9674 34.0691 54.0228 34.5192L54.5504 34.7557L55.3436 29.9479Z" fill="#00579F"/>
<path d="M63.0942 43.7809C63.5745 42.5018 65.4228 37.5514 65.4228 37.5514C65.3985 37.5989 65.9021 36.2487 66.1901 35.4198L66.5977 37.3383C66.5977 37.3383 67.7022 42.6677 67.9421 43.7809C67.0306 43.7809 64.2462 43.7809 63.0942 43.7809ZM70.2937 29.4038H65.7822C64.391 29.4038 63.334 29.8061 62.7338 31.2511L54.0703 51.6681H60.1902C60.1902 51.6681 61.1977 48.9201 61.4143 48.3283C62.0857 48.3283 68.039 48.3283 68.9027 48.3283C69.0702 49.11 69.5987 51.6681 69.5987 51.6681H74.999L70.2937 29.4038Z" fill="#00579F"/>
<path d="M23.4976 29.4038L17.7857 44.5861L17.1615 41.507C16.1055 37.954 12.7936 34.0938 9.09766 32.1745L14.3296 51.6448H20.4973L29.665 29.4038H23.4976Z" fill="#00579F"/>
<path d="M12.4799 29.4038H3.096L3 29.8537C10.3201 31.7013 15.168 36.1549 17.1598 41.5079L15.1198 31.2754C14.784 29.8534 13.7519 29.4507 12.4799 29.4038Z" fill="#FAA61A"/>
</g>
<defs>
<clipPath id="clip0">
<rect width="72" height="23" fill="#FCFBFB" transform="translate(3 29)"/>
</clipPath>
</defs>
</svg>
